<svg xmlns="http://www.w3.org/2000/svg" viewBox="0 0 270.4 40.1"><defs><style>.cls-1{fill:#a214cc;}</style></defs><title>zc_mobile_logo2</title><g id="Layer_2" data-name="Layer 2"><g id="logo"><path class="cls-1" d="M0,17.29V.26H1.38L5,9.8h.39L9.1.26h1.38v17H9.07V4.08H9l-2.73,7h-2L1.51,4.06H1.4V17.29Z"/><path class="cls-1" d="M22.82,15.52l.34,1.32a14.71,14.71,0,0,1-4.11.68,5,5,0,0,1-4.43-2.07c-1-1.37-1.44-3.6-1.44-6.66s.47-5.3,1.4-6.7A5,5,0,0,1,19.08,0a10.77,10.77,0,0,1,4,.81l-.42,1.3a9.15,9.15,0,0,0-3.53-.78,3.57,3.57,0,0,0-3.34,1.75,11.61,11.61,0,0,0-1,5.65A11.28,11.28,0,0,0,15.8,14.4a3.6,3.6,0,0,0,3.28,1.77A14.43,14.43,0,0,0,22.82,15.52Z"/><path class="cls-1" d="M26,1.59V.26H36.44V1.59H31.92v15.7H30.49V1.59Z"/><path class="cls-1" d="M48.81,15.52l.34,1.32a14.66,14.66,0,0,1-4.11.68,5,5,0,0,1-4.43-2.07c-1-1.37-1.44-3.6-1.44-6.66s.47-5.3,1.4-6.7A5,5,0,0,1,45.07,0a10.73,10.73,0,0,1,4,.81l-.41,1.3a9.23,9.23,0,0,0-3.54-.78,3.58,3.58,0,0,0-3.34,1.75,11.73,11.73,0,0,0-1,5.65q0,3.9,1.1,5.67a3.59,3.59,0,0,0,3.27,1.77A14.43,14.43,0,0,0,48.81,15.52Z"/><path class="cls-1" d="M68.36,16v1.33H59.83V.26h1.43V16Z"/><path class="cls-1" d="M72.62,17.29V16h3.8V6.24h-3.8V4.94H77.8V16h3.79v1.3Zm3.25-16a1.06,1.06,0,0,1,.3-.8A1.14,1.14,0,0,1,77,.18c.71,0,1.07.38,1.07,1.15S77.7,2.46,77,2.44,75.87,2.05,75.87,1.27Z"/><path class="cls-1" d="M85.46,17.29V0h1.38v6.1a6.41,6.41,0,0,1,3.54-1.35A4.36,4.36,0,0,1,94,6.38a7.17,7.17,0,0,1,1.27,4.56,7.41,7.41,0,0,1-1.43,4.77,4.69,4.69,0,0,1-3.9,1.81,7.42,7.42,0,0,1-3.12-.75l0,.52ZM93.78,11a6.08,6.08,0,0,0-.9-3.56A3,3,0,0,0,90.3,6.13a5.45,5.45,0,0,0-3.46,1.49v7.79a7.82,7.82,0,0,0,1.5.51,6.13,6.13,0,0,0,1.54.25,3.33,3.33,0,0,0,2.86-1.46A6.31,6.31,0,0,0,93.78,11Z"/><path class="cls-1" d="M98.56,17.29V16h3V6.24h-3V4.94h4.34L103,6.45a11,11,0,0,1,2.34-1A11.25,11.25,0,0,1,108,4.78h.28V6.32H108a13.32,13.32,0,0,0-2.64.52,9.49,9.49,0,0,0-2.35.91V16h4.16v1.3Z"/><path class="cls-1" d="M115.09,17.52a4.3,4.3,0,0,1-3-1,3.51,3.51,0,0,1-1.1-2.76,3.38,3.38,0,0,1,1.2-2.78,4.72,4.72,0,0,1,3.17-1,32.35,32.35,0,0,1,3.48.16A6.11,6.11,0,0,0,118.29,7,2.63,2.63,0,0,0,116,6.13a12.6,12.6,0,0,0-4.11.84l-.39-1.3a12.87,12.87,0,0,1,4.37-.89c1.71,0,2.88.38,3.48,1.15a6.56,6.56,0,0,1,.91,4v5.46l.21,2-1.33.13-.26-1.56A7.89,7.89,0,0,1,117.17,17,4.78,4.78,0,0,1,115.09,17.52Zm0-1.35a4.52,4.52,0,0,0,2.09-.61,7.3,7.3,0,0,0,1.65-1.13v-3.1c-1.14-.08-2.23-.13-3.27-.13a3.49,3.49,0,0,0-2.34.67,2.21,2.21,0,0,0-.78,1.78C112.47,15.33,113.35,16.17,115.12,16.17Z"/><path class="cls-1" d="M124.56,17.29V16h3V6.24h-3V4.94h4.34l0,1.51a11,11,0,0,1,2.34-1,11.37,11.37,0,0,1,2.65-.63h.29V6.32h-.29a13.32,13.32,0,0,0-2.64.52,9.49,9.49,0,0,0-2.35.91V16h4.16v1.3Z"/><path class="cls-1" d="M136.88,4.94h1.56l3.66,10.5h.21l3.27-10.5h1.56l-4.78,14.45A5.79,5.79,0,0,1,141,22a5.68,5.68,0,0,1-3,.62V21.31a3.43,3.43,0,0,0,1.95-.41,3.59,3.59,0,0,0,.91-1.64l.6-1.79Z"/><path d="M85.85,28.8V27.5h8.48l.13,1.06-7,10h7.07v1.3h-8.7l-.21-1.06,7-10Z"/><path d="M98.74,39.84v-1.3h3.8V28.8h-3.8V27.5h5.18v11h3.79v1.3Zm3.25-16a1.08,1.08,0,0,1,.3-.81,1.13,1.13,0,0,1,.82-.28c.71,0,1.07.38,1.07,1.14S103.82,25,103.11,25,102,24.61,102,23.83Z"/><path d="M112.88,27.5l.06,1a10.24,10.24,0,0,1,4.18-1.2,3.21,3.21,0,0,1,2.61,1.14,4.73,4.73,0,0,1,1,3.12v8.24H119.3V31.6a3.36,3.36,0,0,0-.62-2.1,2.22,2.22,0,0,0-1.87-.81,11.18,11.18,0,0,0-3.87,1.14v10h-1.38V27.5Z"/><path d="M124.32,33.68A7.66,7.66,0,0,1,125.56,29a4.18,4.18,0,0,1,3.6-1.68,4.1,4.1,0,0,1,3.52,1.56,6.84,6.84,0,0,1,1.15,4.16l-.07,1.3h-8a5.88,5.88,0,0,0,1,3.16,3,3,0,0,0,2.51,1.2,11.71,11.71,0,0,0,3.76-.75l.39,1.3a11.11,11.11,0,0,1-4,.81,4.63,4.63,0,0,1-3.88-1.71A7.41,7.41,0,0,1,124.32,33.68Zm4.94-5c-2.18,0-3.34,1.46-3.46,4.39h6.55Q132.35,28.67,129.26,28.67Z"/><path d="M152.94,27.91l-.31,1.35a9,9,0,0,0-3-.57,3.21,3.21,0,0,0-2.8,1.31,6.35,6.35,0,0,0-.92,3.66,6.4,6.4,0,0,0,.94,3.7,3.14,3.14,0,0,0,2.78,1.36,9.58,9.58,0,0,0,3.12-.67l.41,1.3a9.94,9.94,0,0,1-3.51.73,4.7,4.7,0,0,1-3.9-1.71,7.43,7.43,0,0,1-1.35-4.74A7.26,7.26,0,0,1,145.74,29a4.74,4.74,0,0,1,3.9-1.62A10.14,10.14,0,0,1,152.94,27.91Z"/><path d="M156.86,33.71q0-6.37,5-6.37t5,6.37c0,4.24-1.65,6.37-5,6.37S156.86,38,156.86,33.71Zm5-5c-2.32,0-3.49,1.67-3.49,5s1.17,5,3.49,5,3.48-1.67,3.48-5S164.15,28.69,161.83,28.69Z"/><path d="M170.8,39.84v-1.3h4V23.83l-3.87,0,0-1.28,5.28,0v16h4.11v1.3Z"/><path d="M183.79,39.84v-1.3h4V23.83l-3.87,0,0-1.28,5.28,0v16h4.1v1.3Z"/><path d="M196.06,33.68A7.66,7.66,0,0,1,197.3,29a4.18,4.18,0,0,1,3.6-1.68,4.1,4.1,0,0,1,3.52,1.56,6.84,6.84,0,0,1,1.15,4.16l-.07,1.3h-8a5.88,5.88,0,0,0,1,3.16,3,3,0,0,0,2.51,1.2,11.71,11.71,0,0,0,3.76-.75l.39,1.3a11.06,11.06,0,0,1-4,.81,4.64,4.64,0,0,1-3.89-1.71A7.41,7.41,0,0,1,196.06,33.68Zm4.94-5c-2.18,0-3.34,1.46-3.46,4.39h6.55Q204.09,28.67,201,28.67Z"/><path d="M217.92,27.91l-.31,1.35a9,9,0,0,0-3-.57A3.18,3.18,0,0,0,211.83,30a6.27,6.27,0,0,0-.93,3.66,6.4,6.4,0,0,0,.94,3.7,3.14,3.14,0,0,0,2.78,1.36,9.58,9.58,0,0,0,3.12-.67l.41,1.3a9.93,9.93,0,0,1-3.5.73,4.67,4.67,0,0,1-3.9-1.71,7.43,7.43,0,0,1-1.36-4.74A7.26,7.26,0,0,1,210.72,29a4.74,4.74,0,0,1,3.9-1.62A10.14,10.14,0,0,1,217.92,27.91Z"/><path d="M221.77,29.13v-1.3h2.52V24.69l1.38-.26v3.4h6v1.3h-6v5.93a5.28,5.28,0,0,0,.58,2.85,2.34,2.34,0,0,0,2.09.87,12.48,12.48,0,0,0,1.77-.2,11.9,11.9,0,0,0,1.64-.35l.31,1.27a9.42,9.42,0,0,1-1.81.39,13.54,13.54,0,0,1-1.91.21c-1.56,0-2.62-.41-3.19-1.23a6.59,6.59,0,0,1-.86-3.76v-6Z"/><path d="M235.46,39.84v-1.3h3.8V28.8h-3.8V27.5h5.18v11h3.79v1.3Zm3.25-16A1.08,1.08,0,0,1,239,23a1.15,1.15,0,0,1,.82-.28c.71,0,1.07.38,1.07,1.14S240.54,25,239.83,25,238.71,24.61,238.71,23.83Z"/><path d="M247.84,33.71q0-6.37,5-6.37t5,6.37c0,4.24-1.66,6.37-5,6.37S247.84,38,247.84,33.71Zm5-5q-3.48,0-3.48,5t3.48,5c2.32,0,3.49-1.67,3.49-5S255.12,28.69,252.8,28.69Z"/><path d="M262.6,27.5l0,1a10.28,10.28,0,0,1,4.19-1.2,3.21,3.21,0,0,1,2.61,1.14,4.78,4.78,0,0,1,.95,3.12v8.24H269V31.6a3.42,3.42,0,0,0-.62-2.1,2.22,2.22,0,0,0-1.87-.81,11.16,11.16,0,0,0-3.88,1.14v10h-1.37V27.5Z"/></g></g></svg>