<svg xmlns="http://www.w3.org/2000/svg" viewBox="0 0 555.07 60"><defs><style>.cls-1{opacity:0.6;}.cls-2{fill:#19ffa6;}.cls-3{fill:#a214cc;}</style></defs><title>zc_logo</title><g id="Layer_2" data-name="Layer 2"><g id="header_nav" data-name="header nav"><g class="cls-1"><rect class="cls-2" x="233.03" width="322.04" height="60"/></g><path class="cls-3" d="M0,28.78V1.89H2.18L8,17h.61L14.37,1.89h2.18V28.78H14.33V7.92h-.16L9.85,19.05H6.69L2.38,7.88H2.22v20.9Z"/><path class="cls-3" d="M36.05,26l.53,2.09a23.17,23.17,0,0,1-6.48,1.07q-4.73,0-7-3.27T20.82,15.35q0-7.26,2.21-10.57c1.48-2.2,3.85-3.31,7.11-3.31a17,17,0,0,1,6.24,1.28L35.72,4.8a14.55,14.55,0,0,0-5.58-1.23,5.64,5.64,0,0,0-5.28,2.77c-1.08,1.85-1.62,4.82-1.62,8.93s.57,7.09,1.72,9A5.69,5.69,0,0,0,30.14,27,22.79,22.79,0,0,0,36.05,26Z"/><path class="cls-3" d="M41.06,4V1.89H57.57V4H50.42v24.8H48.16V4Z"/><path class="cls-3" d="M77.11,26l.53,2.09a23.23,23.23,0,0,1-6.48,1.07c-3.15,0-5.49-1.09-7-3.27s-2.28-5.68-2.28-10.53S62.62,7,64.09,4.78s3.85-3.31,7.11-3.31a17,17,0,0,1,6.24,1.28L76.78,4.8A14.55,14.55,0,0,0,71.2,3.57a5.64,5.64,0,0,0-5.28,2.77c-1.08,1.85-1.62,4.82-1.62,8.93s.57,7.09,1.72,9A5.69,5.69,0,0,0,71.2,27,22.79,22.79,0,0,0,77.11,26Z"/><path class="cls-3" d="M108,26.68v2.1H94.52V1.89h2.26V26.68Z"/><path class="cls-3" d="M114.72,28.78V26.73h6V11.33h-6V9.28h8.17V26.73h6v2.05Zm5.13-25.29a1.69,1.69,0,0,1,.48-1.28,1.78,1.78,0,0,1,1.29-.45c1.12,0,1.68.6,1.68,1.81s-.56,1.79-1.68,1.76S119.85,4.72,119.85,3.49Z"/><path class="cls-3" d="M135,28.78V1.52h2.18v9.64A10.09,10.09,0,0,1,142.76,9a6.88,6.88,0,0,1,5.71,2.52q2,2.54,2,7.21a11.8,11.8,0,0,1-2.25,7.53,7.42,7.42,0,0,1-6.16,2.86A11.67,11.67,0,0,1,137.14,28l-.08.82Zm13.14-10a9.67,9.67,0,0,0-1.41-5.62,4.71,4.71,0,0,0-4.09-2,8.59,8.59,0,0,0-5.46,2.34V25.82a13,13,0,0,0,2.36.8A10.14,10.14,0,0,0,142,27a5.23,5.23,0,0,0,4.52-2.3A10,10,0,0,0,148.14,18.8Z"/><path class="cls-3" d="M155.7,28.78V26.73h4.68V11.33H155.7V9.28h6.85l.09,2.38A18.31,18.31,0,0,1,166.33,10a18.64,18.64,0,0,1,4.19-1H171v2.42h-.45a22.21,22.21,0,0,0-4.17.82,16.27,16.27,0,0,0-3.71,1.44v13h6.57v2.05Z"/><path class="cls-3" d="M181.81,29.15a6.81,6.81,0,0,1-4.72-1.54,5.56,5.56,0,0,1-1.72-4.37,5.38,5.38,0,0,1,1.88-4.4,7.48,7.48,0,0,1,5-1.6,52.62,52.62,0,0,1,5.51.25c0-2.44-.31-4.1-.91-5s-1.82-1.34-3.65-1.34a19.92,19.92,0,0,0-6.49,1.32l-.62-2.05A20.4,20.4,0,0,1,183,9c2.71,0,4.55.6,5.5,1.81s1.44,3.31,1.44,6.32v8.62l.33,3.12-2.09.21-.41-2.47a12.28,12.28,0,0,1-2.67,1.67A7.53,7.53,0,0,1,181.81,29.15Zm0-2.14a7,7,0,0,0,3.31-1,11.44,11.44,0,0,0,2.61-1.79V19.38c-1.81-.14-3.54-.21-5.18-.21a5.56,5.56,0,0,0-3.69,1A3.51,3.51,0,0,0,177.66,23C177.66,25.69,179.06,27,181.85,27Z"/><path class="cls-3" d="M196.76,28.78V26.73h4.68V11.33h-4.68V9.28h6.85l.09,2.38A18.31,18.31,0,0,1,207.39,10a18.64,18.64,0,0,1,4.19-1H212v2.42h-.45a22.21,22.21,0,0,0-4.17.82,16.27,16.27,0,0,0-3.71,1.44v13h6.57v2.05Z"/><path class="cls-3" d="M216.22,9.28h2.46l5.79,16.58h.33L230,9.28h2.47L224.88,32.1q-1.06,3.26-2.23,4.15c-.78.6-2.37.93-4.75,1v-2.1a5.43,5.43,0,0,0,3.08-.65,5.67,5.67,0,0,0,1.44-2.59l.94-2.83Z"/><path d="M258.59,11.33V9.28H272l.2,1.68-11,15.77h11.17v2.05H258.55l-.33-1.68,11-15.77Z"/><path d="M279,28.78V26.73h6V11.33h-6V9.28h8.17V26.73h6v2.05Zm5.13-25.29a1.72,1.72,0,0,1,.47-1.28,1.82,1.82,0,0,1,1.3-.45c1.12,0,1.68.6,1.68,1.81s-.56,1.79-1.68,1.76S284.09,4.72,284.09,3.49Z"/><path d="M301.29,9.28l.09,1.64A16.24,16.24,0,0,1,308,9a5,5,0,0,1,4.12,1.81,7.45,7.45,0,0,1,1.5,4.92v13h-2.17v-13a5.35,5.35,0,0,0-1-3.32,3.5,3.5,0,0,0-2.95-1.28A17.69,17.69,0,0,0,301.38,13V28.78H299.2V9.28Z"/><path d="M319.36,19.05q0-4.73,1.95-7.37A6.62,6.62,0,0,1,327,9a6.48,6.48,0,0,1,5.56,2.46,10.8,10.8,0,0,1,1.83,6.57l-.12,2.06H321.7a9.19,9.19,0,0,0,1.64,5,4.68,4.68,0,0,0,4,1.91,18.22,18.22,0,0,0,5.93-1.19l.62,2.06a17.72,17.72,0,0,1-6.25,1.27,7.34,7.34,0,0,1-6.13-2.69A11.69,11.69,0,0,1,319.36,19.05Zm7.8-7.93q-5.18,0-5.46,6.94h10.35C332.05,13.44,330.42,11.12,327.16,11.12Z"/><path d="M364.57,9.93l-.49,2.14a14.33,14.33,0,0,0-4.73-.91,5,5,0,0,0-4.41,2.08A9.9,9.9,0,0,0,353.48,19,10.18,10.18,0,0,0,355,24.86,5,5,0,0,0,359.35,27,15.1,15.1,0,0,0,364.28,26l.66,2.05a15.53,15.53,0,0,1-5.55,1.15,7.39,7.39,0,0,1-6.15-2.69Q351.1,23.78,351.1,19c0-3.21.7-5.66,2.09-7.37A7.5,7.5,0,0,1,359.35,9,16,16,0,0,1,364.57,9.93Z"/><path d="M370.77,19.09Q370.77,9,378.61,9t7.84,10.06q0,10.07-7.84,10.06T370.77,19.09Zm7.84-7.93q-5.5,0-5.5,7.93t5.5,7.92q5.5,0,5.5-7.92T378.61,11.16Z"/><path d="M392.78,28.78V26.73h6.28V3.49l-6.12,0,0-2,8.33-.05V26.73h6.49v2.05Z"/><path d="M413.31,28.78V26.73h6.28V3.49l-6.12,0,0-2,8.33-.05V26.73h6.49v2.05Z"/><path d="M432.69,19.05c0-3.15.64-5.61,1.95-7.37A6.6,6.6,0,0,1,440.32,9a6.5,6.5,0,0,1,5.57,2.46,10.86,10.86,0,0,1,1.82,6.57l-.12,2.06H435a9,9,0,0,0,1.64,5,4.67,4.67,0,0,0,4,1.91,18.22,18.22,0,0,0,5.93-1.19l.62,2.06a17.71,17.71,0,0,1-6.24,1.27,7.36,7.36,0,0,1-6.14-2.69A11.68,11.68,0,0,1,432.69,19.05Zm7.8-7.93q-5.17,0-5.46,6.94h10.34C445.37,13.44,443.74,11.12,440.49,11.12Z"/><path d="M467.22,9.93l-.5,2.14a14.23,14.23,0,0,0-4.72-.91,5,5,0,0,0-4.41,2.08A9.9,9.9,0,0,0,456.13,19a10.18,10.18,0,0,0,1.48,5.85A5,5,0,0,0,462,27,15.1,15.1,0,0,0,466.93,26l.66,2.05A15.53,15.53,0,0,1,462,29.15a7.42,7.42,0,0,1-6.16-2.69q-2.13-2.68-2.13-7.49c0-3.21.7-5.66,2.09-7.37A7.5,7.5,0,0,1,462,9,16.06,16.06,0,0,1,467.22,9.93Z"/><path d="M473.29,11.86v-2h4v-5l2.17-.41V9.81h9.4v2h-9.4v9.36a8.3,8.3,0,0,0,.93,4.5,3.67,3.67,0,0,0,3.3,1.38,20.21,20.21,0,0,0,2.79-.31,17.44,17.44,0,0,0,2.59-.56l.49,2a17.93,17.93,0,0,1-2.85.61,21.64,21.64,0,0,1-3,.33c-2.46,0-4.15-.65-5.05-2s-1.35-3.28-1.35-5.93V11.86Z"/><path d="M494.93,28.78V26.73h6V11.33h-6V9.28h8.17V26.73h6v2.05Zm5.13-25.29a1.69,1.69,0,0,1,.48-1.28,1.78,1.78,0,0,1,1.29-.45c1.12,0,1.68.6,1.68,1.81s-.56,1.79-1.68,1.76S500.06,4.72,500.06,3.49Z"/><path d="M514.47,19.09Q514.47,9,522.32,9t7.84,10.06q0,10.07-7.84,10.06T514.47,19.09Zm7.85-7.93q-5.51,0-5.51,7.93T522.32,27q5.49,0,5.5-7.92T522.32,11.16Z"/><path d="M537.8,9.28l.08,1.64A16.24,16.24,0,0,1,544.49,9a5,5,0,0,1,4.12,1.81,7.45,7.45,0,0,1,1.5,4.92v13h-2.17v-13a5.35,5.35,0,0,0-1-3.32,3.5,3.5,0,0,0-3-1.28A17.69,17.69,0,0,0,537.88,13V28.78H535.7V9.28Z"/></g></g></svg>