<svg id="color" xmlns="http://www.w3.org/2000/svg" viewBox="0 0 511.46 266.65"><defs><style>.cls-1{fill:#ffb200;}.cls-2{fill:#a214cc;}.cls-3{fill:#19ffa6;opacity:0.6;}</style></defs><title>about-image-mobile2</title><rect class="cls-1" x="110.26" y="2.29" width="23.95" height="22.44"/><rect class="cls-1" x="77.33" y="2.29" width="31.23" height="5.98"/><rect class="cls-1" x="134.22" y="4.2" width="16.39" height="6.36"/><rect class="cls-1" x="152.98" y="2.29" width="18.39" height="5.98"/><rect class="cls-1" x="175.22" y="2.29" width="47.54" height="11.64"/><rect class="cls-1" x="106.38" y="24.73" width="20.84" height="30.82"/><rect class="cls-1" x="231.74" y="4.2" width="38.5" height="11.57"/><rect class="cls-1" x="263.56" y="19.75" width="7.53" height="37.39"/><rect class="cls-1" x="332.69" y="2.52" width="6.42" height="53.03"/><rect class="cls-1" x="276.83" y="0.9" width="55.86" height="9.08"/><rect class="cls-1" x="275.77" y="9.06" width="8.02" height="19.21"/><rect class="cls-1" x="424.33" y="4.2" width="70.27" height="11.57"/><rect class="cls-1" x="488.39" y="16.18" width="13.59" height="38.04"/><rect class="cls-1" x="374.04" y="4.2" width="41.63" height="56.18"/><rect class="cls-1" x="479.06" y="58.39" width="21.73" height="46.54"/><rect class="cls-1" x="396" y="62.54" width="64.11" height="23.5"/><rect class="cls-1" x="369.48" y="64.51" width="26.95" height="9.6"/><rect class="cls-1" x="338.25" y="64.51" width="29.51" height="6.84"/><rect class="cls-1" x="276.83" y="53.87" width="44.82" height="21.15"/><rect class="cls-1" x="294.19" y="76.73" width="15.83" height="11.72"/><rect class="cls-1" x="174.29" y="56.38" width="100.26" height="29.66"/><rect class="cls-1" x="192.82" y="77.56" width="8.98" height="38.92"/><rect class="cls-1" x="96.79" y="57.14" width="56.68" height="24.14"/><rect class="cls-1" x="38.33" y="62.54" width="56.32" height="4.54"/><rect class="cls-1" x="418.08" y="150.77" width="92.91" height="10.92"/><rect class="cls-1" x="415.07" y="156.33" width="6.57" height="44.03"/><rect class="cls-1" x="409.57" y="204.67" width="52.56" height="15.97"/><rect class="cls-1" x="475.73" y="198.04" width="30.5" height="17.55"/><rect class="cls-1" x="36.47" y="2.52" width="29.03" height="22.78"/><rect class="cls-1" x="38.97" y="34.31" width="17.11" height="24.21"/><rect class="cls-1" x="56.08" y="40.14" width="13.69" height="18.38"/><rect class="cls-2" x="110.26" y="20.63" width="11.56" height="24.63"/><rect class="cls-2" x="174.29" y="13.04" width="15.53" height="43.34"/><rect class="cls-2" x="189.82" y="11.33" width="11.98" height="2.6"/><rect class="cls-2" x="223.47" y="4.2" width="9.13" height="19.96"/><rect class="cls-2" x="40.9" y="25.87" width="26.59" height="8.84"/><rect class="cls-2" x="54.95" y="34.71" width="11.54" height="6.74"/><rect class="cls-2" x="272.52" y="28.27" width="15.11" height="28.87"/><rect class="cls-2" x="236.22" y="77.56" width="32.6" height="7.45"/><rect class="cls-2" x="236.22" y="86.04" width="10.92" height="32.37"/><rect class="cls-2" x="272.52" y="71.35" width="18.82" height="49.04"/><rect class="cls-2" x="141.63" y="81.28" width="11.35" height="34.13"/><rect class="cls-2" x="38.33" y="65.35" width="27.16" height="15.93"/><rect class="cls-2" x="50.66" y="81.28" width="4.29" height="26.14"/><rect class="cls-2" x="433.67" y="7.6" width="32.91" height="50.79"/><rect class="cls-2" x="437.27" y="86.04" width="18.4" height="31.72"/><rect class="cls-2" x="396" y="75.02" width="14.76" height="18.36"/><rect class="cls-2" x="406.05" y="94.09" width="4.71" height="21.75"/><rect class="cls-2" x="338.25" y="70.07" width="31.14" height="15.97"/><rect class="cls-2" x="477.81" y="216.36" width="29.66" height="15.11"/><rect class="cls-2" x="408.07" y="219.8" width="20.02" height="32.2"/><rect class="cls-2" x="455.56" y="167.02" width="22.24" height="23.95"/><rect class="cls-2" x="409.7" y="196.11" width="69.04" height="6.56"/><rect class="cls-3" x="65.49" y="3.21" width="44.14" height="53.93"/><rect class="cls-3" x="127.23" y="7.38" width="43.99" height="51.14"/><rect class="cls-3" x="189.82" y="13.93" width="40.2" height="43.22"/><rect class="cls-3" x="230.81" y="11.47" width="36.02" height="45.67"/><rect class="cls-3" x="97.12" y="64.51" width="43.84" height="53.9"/><rect class="cls-3" x="9.32" y="84.12" width="24.39" height="50.57" transform="translate(18.9 -13.67) rotate(10.3)"/><rect class="cls-3" x="65.49" y="66.46" width="29.16" height="47.52"/><rect class="cls-3" x="54.19" y="78.91" width="10.73" height="39.5"/><rect class="cls-3" x="150.61" y="60.37" width="40.07" height="58.03"/><rect class="cls-3" x="201.8" y="77.56" width="36.11" height="38.92"/><rect class="cls-3" x="244.86" y="80.62" width="27.66" height="35.86"/><rect class="cls-3" x="291.34" y="60.37" width="44.56" height="60.02"/><rect class="cls-3" x="280.64" y="7.38" width="54.72" height="48.45"/><rect class="cls-3" x="338.25" width="47.33" height="55.55"/><rect class="cls-3" x="398.2" y="9.06" width="40.09" height="46.49"/><rect class="cls-3" x="463.22" y="14.18" width="28.59" height="41.65"/><rect class="cls-3" x="452.73" y="62.54" width="30.24" height="53.94"/><rect class="cls-3" x="409.03" y="75.02" width="30.6" height="42.1"/><rect class="cls-3" x="396" y="90.39" width="9.57" height="26.74"/><rect class="cls-3" x="364.91" y="63.51" width="31.08" height="54.89"/><rect class="cls-3" x="335.9" y="76.54" width="29.02" height="41.86"/><rect class="cls-3" x="478.63" y="156.76" width="32.37" height="45.03"/><rect class="cls-3" x="425.47" y="216.36" width="48.35" height="44.2"/><rect class="cls-3" x="418.35" y="156.76" width="40.49" height="45.91"/><rect class="cls-3" x="477.19" y="228.19" width="34.26" height="35.5"/><rect class="cls-1" x="284.11" y="150.62" width="66.72" height="9.13"/><rect class="cls-1" x="250.75" y="184.3" width="55.04" height="6.84" transform="translate(89.54 454.41) rotate(-90)"/><rect class="cls-1" x="231.64" y="148.12" width="41.92" height="11.06"/><rect class="cls-1" x="231.64" y="156.61" width="10.27" height="48.48"/><rect class="cls-1" x="212.25" y="149.76" width="15.97" height="115.21"/><rect class="cls-1" x="166.05" y="145.94" width="46.2" height="9.24"/><rect class="cls-1" x="163.9" y="155.18" width="6" height="25.66"/><rect class="cls-1" x="162.34" y="180.85" width="5.13" height="20.25"/><rect class="cls-1" x="350.25" y="209.08" width="22.97" height="57.57"/><rect class="cls-1" x="312.05" y="207.54" width="36.79" height="6.39"/><rect class="cls-1" x="232.21" y="207.54" width="37.64" height="12.94"/><rect class="cls-1" x="269.85" y="204.23" width="37.07" height="9.7"/><rect class="cls-1" x="197.13" y="210.5" width="13.4" height="22.81"/><rect class="cls-1" x="183.16" y="203.09" width="13.97" height="8.55"/><rect class="cls-1" x="108.3" y="205.66" width="57.18" height="18.11"/><rect class="cls-1" x="8.51" y="149.19" width="99.79" height="11.12"/><rect class="cls-1" y="203.09" width="52.56" height="15.97"/><rect class="cls-1" x="66.16" y="196.47" width="30.5" height="17.55"/><rect class="cls-2" x="68.24" y="214.78" width="29.66" height="15.11"/><rect class="cls-2" x="97.33" y="213.93" width="10.97" height="5.13"/><rect class="cls-2" x="46" y="165.45" width="22.24" height="23.95"/><rect class="cls-2" x="0.14" y="194.53" width="69.04" height="6.56"/><rect class="cls-2" x="106.81" y="151.19" width="17.01" height="39.92"/><rect class="cls-2" x="106.81" y="196.47" width="11.71" height="4.63"/><rect class="cls-2" x="160.81" y="201.09" width="14.9" height="63.88"/><rect class="cls-2" x="181.8" y="212.5" width="15.33" height="5.73"/><rect class="cls-2" x="213.96" y="242.73" width="20.53" height="20.53"/><rect class="cls-2" x="210.54" y="216.92" width="13.12" height="25.95"/><rect class="cls-2" x="270.42" y="212.5" width="35.36" height="9.84"/><rect class="cls-2" x="305.21" y="223.05" width="11.41" height="43.04"/><rect class="cls-2" x="314.62" y="169.44" width="14.83" height="21.67"/><rect class="cls-2" x="316.62" y="194.53" width="12.83" height="6.56"/><rect class="cls-2" x="353.97" y="150.62" width="20.82" height="7.41"/><rect class="cls-3" x="332.44" y="149.76" width="39.78" height="54.47"/><rect class="cls-3" x="364.38" y="214.01" width="35.79" height="49.82"/><rect class="cls-3" x="312.05" y="212.5" width="44.34" height="50.76"/><rect class="cls-3" x="264" y="220.48" width="41.21" height="42.77"/><rect class="cls-3" x="232.21" y="216.49" width="25.81" height="46.77"/><rect class="cls-3" x="181.8" y="216.49" width="29.59" height="46.77"/><rect class="cls-3" x="127.03" y="220.48" width="35.31" height="40.65"/><rect class="cls-3" x="118" y="145.77" width="44.35" height="55.33"/><rect class="cls-3" x="170.02" y="151.19" width="47.79" height="49.9"/><rect class="cls-3" x="236.77" y="154.75" width="35.79" height="48.34"/><rect class="cls-3" x="277.26" y="158.03" width="40.21" height="47.05"/><rect class="cls-3" x="95.49" y="218.23" width="30.78" height="45.03"/><rect class="cls-3" x="15.9" y="214.78" width="48.35" height="44.2"/><rect class="cls-3" x="66.16" y="156.61" width="42.95" height="45.69"/><rect class="cls-3" x="8.79" y="155.18" width="40.49" height="45.91"/><rect class="cls-3" x="67.63" y="226.62" width="34.26" height="35.5"/></svg>