<svg id="Layer_1" data-name="Layer 1" xmlns="http://www.w3.org/2000/svg" viewBox="0 0 485.92 269.73"><defs><style>.cls-1{stroke:#fff;}.cls-1,.cls-2,.cls-3,.cls-4,.cls-5,.cls-6,.cls-7,.cls-8{stroke-miterlimit:10;}.cls-2,.cls-3,.cls-4,.cls-5,.cls-6,.cls-7,.cls-8{fill:none;}.cls-2,.cls-6,.cls-8{stroke:#75ffca;}.cls-2,.cls-3,.cls-4{stroke-width:4px;}.cls-3,.cls-7{stroke:#a214cc;}.cls-4,.cls-5{stroke:#ffb200;}.cls-5,.cls-6{stroke-width:14px;}.cls-7{stroke-width:12px;}.cls-8{stroke-width:16px;}</style></defs><title>how_to_mobile_5</title><g id="numbers"><path class="cls-1" d="M159.84,30.32c2.81-.11,7.22,0,7.22,0v1.45h-1.75l.05,1.3h5.51v3.71l-1.29,0v1.65H168.1v1.23l-.93,0,0,1.89-1,.08,0,1.19h-4.26l.1-7.47h-2.06V33l2.16,0L162,31.92l-2.11-.05Z" transform="translate(-15.1 -11.27)"/><polygon class="cls-1" points="111.03 17.92 115.11 17.92 115.11 20.56 111.4 20.56 111.4 21.43 110.46 21.43 110.46 24.3 111.3 24.3 111.33 25.38 115.11 25.38 115.11 31.63 107.05 31.63 107.05 29.72 107.95 29.72 107.99 28.82 112.43 28.82 112.36 27.75 108.96 27.75 108.89 26.84 107.92 26.81 107.85 26.01 107.05 25.98 107.05 20.59 107.95 20.59 107.95 19.89 108.89 19.89 108.82 19.02 110.76 18.96 110.69 17.92 111.03 17.92"/><polygon class="cls-1" points="111.08 91.59 114.06 92.04 114.06 92.73 112.6 92.73 112.6 93.5 111.43 93.5 111.46 94.1 110.43 94.1 110.43 94.71 113.9 94.71 113.94 95.64 116.01 95.64 116.01 101.72 115.11 101.72 115.07 102.59 114.24 102.59 114.2 103.56 108.99 103.56 108.99 102.66 108.12 102.63 108.12 101.69 106.98 101.69 106.98 93.47 107.79 93.5 107.82 92.03 108.96 92.06 108.89 91 109.83 91 111.08 91.59"/><rect class="cls-1" x="107.42" y="106.37" width="11.2" height="1.64"/><polygon class="cls-1" points="146.96 89.86 156.19 89.86 156.19 93.23 154.68 93.23 154.75 96.28 153.98 96.28 153.98 99.28 153.08 99.28 153.08 100.72 152.08 100.72 152.04 103.73 148.6 103.73 148.63 100.99 149.57 100.99 149.6 98.15 150.41 98.15 150.37 96.44 151.34 96.41 151.34 94.54 152.24 94.54 152.21 93.57 149.44 93.47 149.4 94.57 147.1 94.47 146.96 89.86"/><polygon class="cls-1" points="265.07 90.1 270.18 90.1 270.18 92.78 267.47 92.78 267.47 93.65 266.4 93.65 266.4 94.38 265.57 94.38 265.57 94.85 269.35 94.85 269.35 95.62 271.02 95.62 271.02 101.74 270.18 101.74 270.18 102.67 269.21 102.67 269.21 103.58 263.96 103.58 263.96 102.77 263.13 102.77 263.13 101.87 262.19 101.84 262.19 93.65 262.86 93.65 262.86 92.04 263.9 92.08 263.83 91.14 264.87 91.14 265.07 90.1"/><polygon class="cls-1" points="301.9 90.14 310.86 90.14 310.86 93.75 309.82 93.75 309.86 96.45 309.06 96.45 309.02 99.23 308.09 99.23 308.09 101 307.22 101 307.22 103.67 303.71 103.67 303.71 100.87 304.61 100.87 304.58 98.33 305.45 98.29 305.45 96.56 306.38 96.52 306.38 94.78 307.28 94.78 307.32 93.58 304.41 93.58 304.41 94.62 301.9 94.55 301.9 90.14"/><polygon class="cls-1" points="177.3 90.06 183.57 90.06 183.57 90.91 184.35 90.91 184.35 95.45 183.17 95.45 183.19 96.43 184.12 96.43 184.12 97.38 185.17 97.38 185.17 101.79 184.15 101.79 184.12 102.59 183.27 102.59 183.24 103.55 177.18 103.55 177.18 102.77 176.3 102.77 176.3 101.77 175.3 101.79 175.3 97.45 176.27 97.45 176.27 96.53 177.15 96.55 177.15 96.05 176.37 96.05 176.37 91.09 177.18 91.09 177.3 90.06"/><polygon class="cls-1" points="216.01 91.86 216.01 89.22 221.36 89.22 221.36 100.18 223.2 100.18 223.2 103.06 215.81 103.06 215.81 100.08 217.78 100.11 217.75 91.93 216.01 91.86"/><polygon class="cls-1" points="332.22 90.05 338.49 90.05 338.49 90.9 339.26 90.9 339.26 95.44 338.09 95.44 338.11 96.42 339.04 96.42 339.04 97.37 340.09 97.37 340.09 101.78 339.06 101.78 339.04 102.59 338.19 102.59 338.16 103.54 332.09 103.54 332.09 102.76 331.22 102.76 331.22 101.76 330.21 101.78 330.21 97.45 331.19 97.45 331.19 96.52 332.07 96.54 332.07 96.04 331.29 96.04 331.29 91.08 332.09 91.08 332.22 90.05"/><polygon class="cls-1" points="61.01 18.33 70.39 18.33 70.39 21.04 64.47 25.6 64.47 28.31 66.03 28.31 65.98 27.41 69.94 27.41 69.94 29.41 67.98 31.22 66.03 31.22 66.03 32.24 62.97 32.24 62.77 31.12 61.52 31.12 61.47 30.41 60.61 30.2 60.61 24.85 61.87 24.8 61.87 23.8 62.62 23.8 62.62 22.94 63.49 22.94 63.49 21.94 65.5 21.94 65.5 21.29 62.77 21.24 62.77 22.09 60.91 22.09 61.01 18.33"/><polygon class="cls-1" points="370.47 18.53 379.84 18.53 379.84 21.24 373.93 25.8 373.93 28.51 375.48 28.51 375.43 27.61 379.39 27.61 379.39 29.61 377.44 31.42 375.48 31.42 375.48 32.44 372.42 32.44 372.22 31.32 370.97 31.32 370.92 30.61 370.07 30.4 370.07 25.05 371.32 25 371.32 24 372.07 24 372.07 23.14 372.94 23.14 372.94 22.14 374.96 22.14 374.96 21.49 372.22 21.44 372.22 22.29 370.37 22.29 370.47 18.53"/><polygon class="cls-1" points="371.07 92.52 371.07 89.88 376.42 89.88 376.42 100.84 378.25 100.84 378.25 103.71 370.87 103.71 370.87 100.74 372.84 100.77 372.8 92.58 371.07 92.52"/><polygon class="cls-1" points="336.46 163.85 341.08 163.85 341.08 164.72 341.95 164.72 341.95 166.79 337.4 166.79 337.4 167.43 336.26 167.43 336.26 169.2 337.3 169.2 337.3 170.07 339.11 170.07 339.11 172.81 338.14 172.81 338.14 173.71 337.2 173.71 337.2 174.75 338.14 174.75 338.14 175.49 338.57 175.49 338.57 174.82 341.68 174.78 341.65 176.52 340.91 176.52 340.94 177.56 339.11 177.56 339.11 178.33 335.56 178.33 335.56 177.56 333.69 177.59 333.69 172.28 334.59 172.31 334.59 171.84 333.82 171.78 333.69 170.94 332.95 170.91 332.95 166.59 333.66 166.56 333.69 164.92 336.43 164.89 336.46 163.85"/><polygon class="cls-1" points="372.63 164.64 382.01 164.64 382.01 167.35 376.09 171.91 376.09 174.62 377.65 174.62 377.6 173.71 381.56 173.71 381.56 175.72 379.6 177.52 377.65 177.52 377.65 178.55 374.59 178.55 374.39 177.42 373.13 177.42 373.08 176.72 372.23 176.51 372.23 171.16 373.49 171.11 373.49 170.1 374.24 170.1 374.24 169.25 375.11 169.25 375.11 168.25 377.12 168.25 377.12 167.6 374.39 167.55 374.39 168.4 372.53 168.4 372.63 164.64"/><polygon class="cls-1" points="332.98 235.02 339.25 235.02 339.25 235.87 340.02 235.87 340.02 240.41 338.85 240.41 338.87 241.38 339.8 241.38 339.8 242.34 340.85 242.34 340.85 246.75 339.82 246.75 339.8 247.55 338.95 247.55 338.92 248.5 332.85 248.5 332.85 247.73 331.98 247.73 331.98 246.72 330.97 246.75 330.97 242.41 331.95 242.41 331.95 241.49 332.83 241.51 332.83 241.01 332.05 241.01 332.05 236.04 332.85 236.04 332.98 235.02"/><polygon class="cls-1" points="371.69 237.47 371.69 234.83 377.04 234.83 377.04 245.8 378.87 245.8 378.87 248.67 371.49 248.67 371.49 245.7 373.46 245.73 373.43 237.54 371.69 237.47"/><polygon class="cls-1" points="422.32 163.63 426.68 163.63 426.68 166.74 423.07 166.74 423.02 167.65 422.02 167.65 422.02 170.2 423.07 170.2 423.02 171.01 426.68 171.01 426.68 177.82 418.21 177.82 418.21 175.77 419.3 175.77 419.3 174.82 423.71 174.77 423.71 173.81 420.48 173.81 420.48 172.96 419.56 172.91 419.56 171.91 418.76 171.86 418.63 166.59 419.22 166.54 419.3 165.69 420.17 165.69 420.17 164.69 422.12 164.69 422.32 163.63"/><polygon class="cls-1" points="419.47 234.97 424.79 234.97 424.79 237.88 422.13 237.88 422.13 238.43 421.07 238.43 421.07 239.08 420.17 239.08 420.17 239.63 423.68 239.63 423.63 240.48 425.54 240.48 425.54 246.9 424.99 246.9 424.94 247.75 423.98 247.75 423.98 248.66 418.72 248.66 418.72 247.7 417.67 247.75 417.67 246.8 416.78 246.8 416.78 238.43 417.31 238.43 417.31 236.97 418.63 236.97 418.63 235.92 419.32 235.87 419.47 234.97"/><polygon class="cls-1" points="416.91 251.31 428.68 251.31 428.68 253.17 416.78 253.17 416.91 251.31"/><polygon class="cls-1" points="456.04 165.5 463.16 165.5 463.16 167.13 461.08 167.13 461.08 168.18 466.67 168.18 466.67 171.82 465.64 171.82 465.64 172.69 464.79 172.69 464.79 174.42 463.94 174.42 463.94 175.4 462.99 175.4 463.04 177.18 462.03 177.18 462.06 178.16 457.82 178.16 457.85 170.76 456.04 170.79 456.04 168.38 457.7 168.38 457.72 167.15 456.04 167.15 456.04 165.5"/><polygon class="cls-1" points="455.92 235.75 464.88 235.75 464.88 239.36 463.85 239.36 463.88 242.07 463.08 242.07 463.04 244.84 462.11 244.84 462.11 246.62 461.24 246.62 461.24 249.29 457.73 249.29 457.73 246.48 458.63 246.48 458.6 243.94 459.47 243.91 459.47 242.17 460.4 242.14 460.4 240.4 461.31 240.4 461.34 239.19 458.43 239.19 458.43 240.23 455.92 240.16 455.92 235.75"/><polygon class="cls-1" points="301.36 236.52 310.32 236.52 310.32 240.13 309.28 240.13 309.31 242.84 308.51 242.84 308.48 245.61 307.54 245.61 307.54 247.38 306.68 247.38 306.68 250.06 303.17 250.06 303.17 247.25 304.07 247.25 304.03 244.71 304.9 244.68 304.9 242.94 305.84 242.9 305.84 241.17 306.74 241.17 306.77 239.96 303.87 239.96 303.87 241 301.36 240.93 301.36 236.52"/><polygon class="cls-1" points="420.12 16.33 424.48 16.33 424.48 19.44 420.87 19.44 420.82 20.34 419.82 20.34 419.82 22.9 420.87 22.9 420.82 23.7 424.48 23.7 424.48 30.52 416.01 30.52 416.01 28.46 417.1 28.46 417.1 27.51 421.5 27.46 421.5 26.51 418.27 26.51 418.27 25.66 417.36 25.61 417.36 24.6 416.56 24.55 416.43 19.29 417.02 19.24 417.1 18.39 417.96 18.39 417.96 17.38 419.92 17.38 420.12 16.33"/><polygon class="cls-1" points="419.12 88.59 424.43 88.59 424.43 91.49 421.77 91.49 421.77 92.05 420.72 92.05 420.72 92.7 419.82 92.7 419.82 93.25 423.33 93.25 423.28 94.1 425.18 94.1 425.18 100.52 424.63 100.52 424.58 101.37 423.63 101.37 423.63 102.27 418.36 102.27 418.36 101.32 417.31 101.37 417.31 100.42 416.43 100.42 416.43 92.05 416.96 92.05 416.96 90.59 418.27 90.59 418.27 89.54 418.96 89.49 419.12 88.59"/><polygon class="cls-1" points="416.56 104.93 428.32 104.93 428.32 106.79 416.43 106.79 416.56 104.93"/><polygon class="cls-1" points="453.84 18.19 460.96 18.19 460.96 19.82 458.88 19.82 458.88 20.88 464.47 20.88 464.47 24.51 463.44 24.51 463.44 25.39 462.59 25.39 462.59 27.12 461.74 27.12 461.74 28.1 460.78 28.1 460.83 29.88 459.83 29.88 459.86 30.85 455.62 30.85 455.64 23.46 453.84 23.48 453.84 21.08 455.49 21.08 455.52 19.85 453.84 19.85 453.84 18.19"/><polygon class="cls-1" points="455.57 89.37 464.53 89.37 464.53 92.98 463.49 92.98 463.52 95.69 462.72 95.69 462.69 98.46 461.75 98.46 461.75 100.23 460.88 100.23 460.88 102.91 457.37 102.91 457.37 100.1 458.28 100.1 458.24 97.56 459.11 97.53 459.11 95.79 460.05 95.76 460.05 94.02 460.95 94.02 460.98 92.81 458.07 92.81 458.07 93.85 455.57 93.78 455.57 89.37"/><polygon class="cls-1" points="334.43 17.86 338.95 17.86 338.95 18.8 340.02 18.8 340.02 20.87 335.27 20.87 335.27 21.71 334.23 21.71 334.23 23.25 335.04 23.25 335.07 24.45 337.13 24.45 337.13 26.89 335.97 26.89 335.97 27.79 334.97 27.79 334.97 28.73 335.94 28.73 335.94 29.43 339.55 29.43 339.48 30.63 338.75 30.63 338.78 31.87 336.97 31.87 336.97 32.71 333.36 32.71 333.36 31.67 331.32 31.74 331.32 26.02 332.53 26.02 332.43 25.42 330.76 25.29 330.76 20.77 331.53 20.77 331.59 18.8 334.23 18.77 334.43 17.86"/><polygon class="cls-1" points="216.08 18.89 216.08 22.28 218.34 22.28 218.34 21.22 220.59 21.22 220.59 22.15 218.94 22.13 218.89 23.38 217.53 23.38 217.53 23.96 216.63 23.96 216.63 24.86 215.75 24.86 215.75 30.63 216.61 30.63 216.61 31.43 217.59 31.43 217.61 32.45 221.45 32.45 221.45 31.53 223.03 31.53 223.03 30.5 224.1 30.52 224.1 29.65 224.86 29.65 224.86 27.92 221.22 27.92 221.22 28.8 219.34 28.82 219.31 26.01 220.31 26.01 220.31 25.01 221.3 25.01 221.19 23.98 222.1 24.01 222.12 23.15 223.15 23.18 223.05 22.38 223.9 22.35 223.9 21.35 224.86 21.35 224.86 18.82 216.08 18.89"/><polygon class="cls-1" points="265.77 17.96 270.25 17.96 270.25 20.74 266.57 20.74 266.6 21.74 265.57 21.74 265.57 24.42 266.47 24.42 266.47 25.12 270.08 25.12 270.11 31.7 261.99 31.7 261.99 30.2 263.23 30.17 263.19 29 267.61 29.03 267.51 27.93 263.86 27.96 263.76 27.06 262.99 27.06 262.96 26.12 261.99 26.12 261.99 20.84 263.09 20.81 263.06 19.94 263.96 19.94 263.93 19.04 265.8 19 265.77 17.96"/><polygon class="cls-1" points="24.98 17.66 29.49 17.66 29.49 18.6 30.56 18.6 30.56 20.67 25.82 20.67 25.82 21.51 24.78 21.51 24.78 23.05 25.58 23.05 25.61 24.25 27.67 24.25 27.67 26.69 26.52 26.69 26.52 27.59 25.52 27.59 25.52 28.53 26.48 28.53 26.48 29.23 30.09 29.23 30.03 30.43 29.29 30.43 29.33 31.67 27.52 31.67 27.52 32.51 23.91 32.51 23.91 31.47 21.87 31.54 21.87 25.82 23.07 25.82 22.97 25.22 21.3 25.09 21.3 20.57 22.07 20.57 22.14 18.6 24.78 18.57 24.98 17.66"/><polygon class="cls-1" points="23.11 89.84 29.3 89.84 29.3 90.66 30.23 90.66 30.23 95.1 29.2 95.1 29.2 96.08 30.23 96.08 30.23 97.08 31.18 97.08 31.18 101.64 30.13 101.64 30.13 102.45 29.2 102.45 29.2 103.42 23.11 103.5 23.11 102.52 22.28 102.55 22.28 101.42 21.23 101.44 21.23 97.08 22.13 97.11 22.13 96.45 23.13 96.45 23.11 95.98 22.13 95.98 22.11 90.84 23.08 90.84 23.11 89.84"/><polygon class="cls-1" points="63.77 93.02 63.77 100.69 61.84 100.69 61.84 103.47 69.16 103.47 69.16 100.77 67.08 100.74 67.06 93.27 64.57 93.27 63.77 93.02"/><polygon class="cls-1" points="26.69 164.75 31.31 164.75 31.31 165.62 32.18 165.62 32.18 167.7 27.63 167.7 27.63 168.33 26.49 168.33 26.49 170.1 27.53 170.1 27.53 170.97 29.34 170.97 29.34 173.71 28.36 173.71 28.36 174.62 27.43 174.62 27.43 175.65 28.36 175.65 28.36 176.39 28.8 176.39 28.8 175.72 31.91 175.69 31.88 177.42 31.14 177.42 31.17 178.46 29.34 178.46 29.34 179.23 25.79 179.23 25.79 178.46 23.92 178.49 23.92 173.18 24.82 173.21 24.82 172.74 24.05 172.68 23.92 171.84 23.18 171.81 23.18 167.5 23.89 167.46 23.92 165.82 26.66 165.79 26.69 164.75"/><polygon class="cls-1" points="62.86 165.54 72.24 165.54 72.24 168.25 66.32 172.81 66.32 175.52 67.88 175.52 67.83 174.62 71.79 174.62 71.79 176.62 69.83 178.43 67.88 178.43 67.88 179.45 64.82 179.45 64.62 178.33 63.36 178.33 63.31 177.63 62.46 177.41 62.46 172.06 63.71 172.01 63.71 171.01 64.47 171.01 64.47 170.15 65.33 170.15 65.33 169.15 67.35 169.15 67.35 168.5 64.62 168.45 64.62 169.3 62.76 169.3 62.86 165.54"/><polygon class="cls-1" points="23.21 235.92 29.48 235.92 29.48 236.77 30.25 236.77 30.25 241.31 29.07 241.31 29.1 242.29 30.03 242.29 30.03 243.24 31.08 243.24 31.08 247.65 30.05 247.65 30.03 248.46 29.18 248.46 29.15 249.41 23.08 249.41 23.08 248.63 22.21 248.63 22.21 247.63 21.2 247.65 21.2 243.32 22.18 243.32 22.18 242.39 23.06 242.41 23.06 241.91 22.28 241.91 22.28 236.95 23.08 236.95 23.21 235.92"/><polygon class="cls-1" points="61.92 238.38 61.92 235.74 67.27 235.74 67.27 246.7 69.1 246.7 69.1 249.57 61.72 249.57 61.72 246.6 63.69 246.63 63.66 238.44 61.92 238.38"/><polygon class="cls-1" points="112.55 164.54 116.91 164.54 116.91 167.65 113.3 167.65 113.25 168.55 112.25 168.55 112.25 171.11 113.3 171.11 113.25 171.91 116.91 171.91 116.91 178.73 108.44 178.73 108.44 176.67 109.53 176.67 109.53 175.72 113.94 175.67 113.94 174.72 110.7 174.72 110.7 173.86 109.79 173.81 109.79 172.81 108.99 172.76 108.86 167.5 109.45 167.45 109.53 166.59 110.39 166.59 110.39 165.59 112.35 165.59 112.55 164.54"/><polygon class="cls-1" points="109.7 235.87 115.02 235.87 115.02 238.78 112.36 238.78 112.36 239.33 111.31 239.33 111.31 239.98 110.4 239.98 110.4 240.53 113.91 240.53 113.86 241.38 115.77 241.38 115.77 247.8 115.22 247.8 115.17 248.66 114.21 248.66 114.21 249.56 108.95 249.56 108.95 248.61 107.89 248.66 107.89 247.7 107.01 247.7 107.01 239.33 107.54 239.33 107.54 237.88 108.86 237.88 108.86 236.82 109.55 236.77 109.7 235.87"/><polygon class="cls-1" points="107.14 252.22 118.91 252.22 118.91 254.07 107.01 254.07 107.14 252.22"/><polygon class="cls-1" points="146.27 166.4 153.39 166.4 153.39 168.03 151.31 168.03 151.31 169.08 156.9 169.08 156.9 172.72 155.87 172.72 155.87 173.6 155.02 173.6 155.02 175.33 154.17 175.33 154.17 176.3 153.22 176.3 153.27 178.08 152.26 178.08 152.29 179.06 148.05 179.06 148.08 171.67 146.27 171.69 146.27 169.28 147.93 169.28 147.95 168.06 146.27 168.06 146.27 166.4"/><polygon class="cls-1" points="146.15 236.66 155.11 236.66 155.11 240.26 154.07 240.26 154.11 242.97 153.31 242.97 153.27 245.75 152.34 245.75 152.34 247.52 151.47 247.52 151.47 250.19 147.96 250.19 147.96 247.38 148.86 247.38 148.83 244.84 149.7 244.81 149.7 243.07 150.63 243.04 150.63 241.3 151.53 241.3 151.57 240.1 148.66 240.1 148.66 241.13 146.15 241.07 146.15 236.66"/><polygon class="cls-1" points="181.9 164.62 186.51 164.62 186.51 165.49 187.38 165.49 187.38 167.56 182.84 167.56 182.84 168.2 181.7 168.2 181.7 169.97 182.74 169.97 182.74 170.84 184.54 170.84 184.54 173.58 183.57 173.58 183.57 174.48 182.64 174.48 182.64 175.52 183.57 175.52 183.57 176.25 184.01 176.25 184.01 175.58 187.12 175.55 187.08 177.29 186.35 177.29 186.38 178.32 184.54 178.32 184.54 179.09 181 179.09 181 178.32 179.13 178.36 179.13 173.04 180.03 173.08 180.03 172.61 179.26 172.54 179.13 171.71 178.39 171.67 178.39 167.36 179.09 167.33 179.13 165.69 181.87 165.66 181.9 164.62"/><polygon class="cls-1" points="218.07 165.41 227.44 165.41 227.44 168.11 221.53 172.68 221.53 175.38 223.08 175.38 223.03 174.48 226.99 174.48 226.99 176.49 225.04 178.29 223.08 178.29 223.08 179.31 220.02 179.31 219.82 178.19 218.57 178.19 218.52 177.49 217.67 177.28 217.67 171.92 218.92 171.87 218.92 170.87 219.67 170.87 219.67 170.02 220.54 170.02 220.54 169.02 222.56 169.02 222.56 168.36 219.82 168.31 219.82 169.17 217.97 169.17 218.07 165.41"/><polygon class="cls-1" points="178.41 235.78 184.68 235.78 184.68 236.64 185.46 236.64 185.46 241.18 184.28 241.18 184.31 242.15 185.23 242.15 185.23 243.1 186.29 243.1 186.29 247.52 185.26 247.52 185.23 248.32 184.38 248.32 184.36 249.27 178.29 249.27 178.29 248.5 177.41 248.5 177.41 247.49 176.41 247.52 176.41 243.18 177.39 243.18 177.39 242.25 178.26 242.28 178.26 241.78 177.49 241.78 177.49 236.81 178.29 236.81 178.41 235.78"/><polygon class="cls-1" points="217.12 238.24 217.12 235.6 222.47 235.6 222.47 246.56 224.31 246.56 224.31 249.44 216.92 249.44 216.92 246.47 218.9 246.5 218.86 238.31 217.12 238.24"/><polygon class="cls-1" points="267.76 164.4 272.12 164.4 272.12 167.51 268.51 167.51 268.46 168.41 267.46 168.41 267.46 170.97 268.51 170.97 268.46 171.77 272.12 171.77 272.12 178.59 263.65 178.59 263.65 176.54 264.73 176.54 264.73 175.58 269.14 175.53 269.14 174.58 265.91 174.58 265.91 173.73 265 173.68 265 172.68 264.2 172.63 264.06 167.36 264.66 167.31 264.73 166.46 265.6 166.46 265.6 165.46 267.56 165.46 267.76 164.4"/><polygon class="cls-1" points="264.91 235.74 270.22 235.74 270.22 238.64 267.56 238.64 267.56 239.19 266.51 239.19 266.51 239.85 265.61 239.85 265.61 240.4 269.12 240.4 269.07 241.25 270.97 241.25 270.97 247.67 270.42 247.67 270.37 248.52 269.42 248.52 269.42 249.42 264.15 249.42 264.15 248.47 263.1 248.52 263.1 247.57 262.22 247.57 262.22 239.19 262.75 239.19 262.75 237.74 264.06 237.74 264.06 236.69 264.76 236.64 264.91 235.74"/><polygon class="cls-1" points="262.35 252.08 274.11 252.08 274.11 253.94 262.22 253.94 262.35 252.08"/><polygon class="cls-1" points="301.48 166.27 308.6 166.27 308.6 167.9 306.52 167.9 306.52 168.95 312.11 168.95 312.11 172.58 311.08 172.58 311.08 173.46 310.23 173.46 310.23 175.19 309.38 175.19 309.38 176.17 308.42 176.17 308.47 177.95 307.47 177.95 307.5 178.93 303.26 178.93 303.28 171.53 301.48 171.56 301.48 169.15 303.13 169.15 303.16 167.92 301.48 167.92 301.48 166.27"/><polygon class="cls-1" points="179.13 18.64 183.74 18.64 183.74 19.51 184.61 19.51 184.61 21.58 180.06 21.58 180.06 22.22 178.93 22.22 178.93 23.99 179.97 23.99 179.97 24.86 181.77 24.86 181.77 27.6 180.8 27.6 180.8 28.5 179.86 28.5 179.86 29.54 180.8 29.54 180.8 30.27 181.24 30.27 181.24 29.61 184.34 29.57 184.31 31.31 183.57 31.31 183.61 32.35 181.77 32.35 181.77 33.12 178.23 33.12 178.23 32.35 176.35 32.38 176.35 27.07 177.26 27.1 177.26 26.63 176.49 26.56 176.35 25.73 175.62 25.7 175.62 21.38 176.32 21.35 176.35 19.71 179.09 19.68 179.13 18.64"/><polygon class="cls-1" points="300.55 17.52 307.67 17.52 307.67 19.15 305.59 19.15 305.59 20.2 311.18 20.2 311.18 23.83 310.16 23.83 310.16 24.71 309.3 24.71 309.3 26.44 308.45 26.44 308.45 27.42 307.5 27.42 307.55 29.2 306.55 29.2 306.57 30.18 302.33 30.18 302.36 22.78 300.55 22.81 300.55 20.4 302.21 20.4 302.23 19.17 300.55 19.17 300.55 17.52"/></g><g id="colors"><polygon class="cls-2" points="360.93 201.12 367.15 201.12 367.15 199.55 371.85 199.55 371.85 198.56 376.96 198.56 376.96 197.26 381.86 197.26 381.86 195.07 387.06 195.07 387.06 193.58 395.64 193.58 395.64 191.89 407.99 191.89 407.99 193.48 411.77 193.48 411.77 194.48 415.86 194.48 415.86 195.77 420.86 195.77 420.86 197.16 425.96 197.16 425.96 198.36 430.46 198.36 430.46 199.46 436.07 199.55 443.63 201.12 435.87 202.44 435.87 204.03 430.15 204.03 430.15 205.13 424.74 205.13 424.74 206.13 420.55 206.13 420.55 207.12 415.24 207.12 415.24 208.41 409.49 208.41 409.49 209.91 401.15 209.91 400.85 208.32 395.74 208.32 395.54 206.52 391.36 206.52 391.36 205.53 386.86 205.53 386.66 204.33 380.68 204.33 380.68 203.34 376.85 203.34 360.93 201.12"/><polygon class="cls-3" points="201.99 201.52 208.22 201.52 208.22 199.95 212.92 199.95 212.92 198.95 218.02 198.95 218.02 197.66 222.92 197.66 222.92 195.47 228.13 195.47 228.13 193.97 236.71 193.97 236.71 192.28 249.89 192.28 249.89 193.87 252.84 193.87 252.84 194.87 256.92 194.87 256.92 196.16 261.93 196.16 261.93 197.56 267.03 197.56 267.03 198.75 271.52 198.75 271.52 199.85 277.14 199.95 284.69 201.52 276.93 202.83 276.93 204.43 271.22 204.43 271.22 205.52 265.8 205.52 265.8 206.52 261.62 206.52 261.62 207.51 256.31 207.51 256.31 208.81 250.55 208.81 250.55 210.3 242.22 210.3 241.91 208.71 236.81 208.71 236.6 206.91 232.42 206.91 232.42 205.92 227.93 205.92 227.72 204.72 221.74 204.72 221.74 203.73 217.92 203.73 201.99 201.52"/><polygon class="cls-4" points="358.68 60.97 364.91 60.97 364.91 59.4 369.61 59.4 369.61 58.4 374.71 58.4 374.71 57.11 379.61 57.11 379.61 54.91 384.82 54.91 384.82 53.42 393.39 53.42 393.39 51.73 405.75 51.73 405.75 53.32 409.53 53.32 409.53 54.32 413.61 54.32 413.61 55.61 418.61 55.61 418.61 57.01 423.72 57.01 423.72 58.2 428.21 58.2 428.21 59.3 433.82 59.4 441.38 60.97 433.62 62.28 433.62 63.88 427.9 63.88 427.9 64.97 422.49 64.97 422.49 65.97 418.31 65.97 418.31 66.96 413 66.96 413 68.26 407.24 68.26 407.24 70.55 398.91 70.55 398.74 69.26 393.62 69.2 393.29 66.36 389.11 66.36 389.11 65.37 384.61 65.37 384.41 64.17 378.43 64.17 378.43 63.18 374.61 63.18 358.68 60.97"/><polygon class="cls-2" points="43.96 201.02 50.19 201.02 50.19 199.45 54.88 199.45 54.88 198.46 59.99 198.46 59.99 197.16 64.89 197.16 64.89 194.97 70.09 194.97 70.09 193.48 78.67 193.48 78.67 191.78 91.03 191.78 91.03 193.38 94.8 193.38 94.8 194.37 98.89 194.37 98.89 195.67 103.89 195.67 103.89 197.06 108.99 197.06 108.99 198.26 113.49 198.26 113.49 199.35 119.1 199.45 126.66 201.02 118.9 202.34 118.9 203.93 113.18 203.93 113.18 205.03 107.77 205.03 107.77 206.02 103.58 206.02 103.58 207.02 98.27 207.02 98.27 208.31 92.52 208.31 92.52 209.8 84.18 209.8 83.88 208.21 78.77 208.21 78.57 206.42 74.39 206.42 74.39 205.42 69.89 205.42 69.69 204.23 63.71 204.23 63.71 203.23 59.88 203.23 43.96 201.02"/><polygon class="cls-2" points="201.72 128.24 207.95 128.24 207.95 126.67 212.64 126.67 212.64 125.67 217.75 125.67 217.75 124.38 222.65 124.38 222.65 122.19 227.86 122.19 227.86 120.69 236.43 120.69 236.43 119 248.79 119 248.79 120.59 252.56 120.59 252.56 121.59 256.65 121.59 256.65 122.89 261.65 122.89 261.65 124.28 266.76 124.28 266.76 125.47 271.25 125.47 271.25 126.57 276.86 126.67 284.42 128.24 276.66 129.56 276.66 131.15 270.94 131.15 270.94 132.24 265.53 132.24 265.53 133.24 261.35 133.24 261.35 134.24 256.04 134.24 256.04 135.53 250.28 135.53 250.28 137.02 241.95 137.02 241.64 135.43 236.53 135.43 236.33 133.64 232.15 133.64 232.15 132.64 227.65 132.64 227.45 131.45 221.47 131.45 221.47 130.45 217.65 130.45 201.72 128.24"/><polygon class="cls-2" points="41.14 61.75 47.36 61.75 47.36 60.18 52.06 60.18 52.06 59.18 57.16 59.18 57.16 57.89 62.07 57.89 62.07 55.7 67.27 55.7 67.27 54.2 75.85 54.2 75.85 52.51 88.2 52.51 88.2 54.1 91.98 54.1 91.98 55.1 96.06 55.1 96.06 56.39 101.07 56.39 101.07 57.79 106.17 57.79 106.17 58.98 110.67 58.98 110.67 60.08 116.28 60.18 123.84 61.75 116.08 63.06 116.08 64.66 110.36 64.66 110.36 65.75 104.95 65.75 104.95 66.75 100.76 66.75 100.76 67.74 95.45 67.74 95.45 69.04 89.69 69.04 89.69 70.53 81.36 70.53 81.06 68.94 75.95 68.94 75.75 67.15 71.57 67.15 71.57 66.15 67.07 66.15 66.86 64.96 60.89 64.96 60.89 63.96 57.06 63.96 41.14 61.75"/><polygon class="cls-5" points="324 17.66 323.9 150.63 363.57 150.63 393.39 158.48 406.73 158.48 438.87 150.37 478.27 150.63 478.27 16 438.61 16.45 404.62 7.72 395.23 7.72 361.52 16.83 324 17.66"/><polyline class="cls-6" points="166.51 29.28 166.58 72.17 204.9 72.17 239.62 64.67 250.54 64.67 286.65 72.17 321.36 72.17 321.36 76.42 286.1 76.42 249.75 69.78 239.82 69.64 207.35 76.42 169.64 76.42 169.5 144.71 163.72 144.71 163.43 146.97 121.79 146.97 92.52 141.76 92.52 140.58 81.36 140.58 81.22 141.76 48.62 147.5 10.1 147.24 10.1 155.93 45.9 155.93 48.09 156.32 83.13 162.57 91.64 162.57 125.19 155.8 163.43 155.86 163.43 158.45 127.47 158.59 91.67 166.32 81.9 166.32 48.21 159.78 47.67 158.59 9.96 158.65 9.89 219.45 9.89 250.58 45.83 250.58 81.08 256.42 81.08 257.41 91.64 257.41 91.5 255.96 125.13 250.71 163.43 250.64 163.43 252.37 164.96 252.44 165.06 253.17 166.58 253.17 166.58 255.02 126.96 254.7 92.11 262.73 80.88 262.73 46.37 255.56 7.08 255.69 7.08 236.97 7.08 205.31 7.08 182.88 7.08 163.63 7.08 149.67 7.55 149.67 7.55 142.7 7.55 48.61"/><line class="cls-6" x1="163.69" y1="28.32" x2="166.51" y2="29.28"/><polyline class="cls-6" points="163.69 26.53 163.69 28.32 163.43 142.7 127.47 142.7 96.06 136.22 81.57 136.22 46.4 142.7 9.66 142.7 9.66 50.86"/><path class="cls-7" d="M182.38,159.17c.11-.25,38.11.55,38.11.55l39.44-7.44,38.69,6.62H340V265H295.62l-28,7.27H255.33l-33.9-7.44-39.75.53Z" transform="translate(-15.1 -11.27)"/><polygon class="cls-8" points="324.93 129.99 324.93 243.65 363.01 243.22 396.16 250.49 408.76 250.13 442.44 243.22 477.87 243.22 477.23 129.32 442.25 129.46 409.03 120.83 394.32 120.96 359.61 130 324.93 129.99"/><polygon class="cls-8" points="166.32 15.86 129.95 15.98 95.42 8.01 80.13 8.13 44.05 16.49 8 16.48 8 121.56 47.59 121.16 82.05 127.89 95.14 127.55 130.15 121.16 166.99 121.16 166.32 15.86"/></g></svg>