<svg id="Layer_2" data-name="Layer 2" xmlns="http://www.w3.org/2000/svg" viewBox="0 0 948.15 288.67"><defs><style>.cls-1,.cls-6{fill:#b6b8c1;}.cls-1{stroke:#b6b8c1;}.cls-1,.cls-10,.cls-11,.cls-12,.cls-2,.cls-3,.cls-4,.cls-5,.cls-6,.cls-7,.cls-8,.cls-9{stroke-miterlimit:10;}.cls-2,.cls-3,.cls-6,.cls-8{stroke:#000;}.cls-3{fill:#fff;}.cls-10,.cls-11,.cls-12,.cls-4,.cls-5,.cls-7,.cls-8,.cls-9{fill:none;}.cls-12,.cls-4{stroke:#ffb200;}.cls-4,.cls-5{stroke-width:10px;}.cls-5,.cls-7,.cls-9{stroke:#75ffca;}.cls-11,.cls-12,.cls-7{stroke-width:4px;}.cls-10,.cls-9{stroke-width:12px;}.cls-10,.cls-11{stroke:#a214cc;}</style></defs><title>how_to_image_5</title><polygon class="cls-1" points="578.61 31.96 618.13 39.17 660.32 39.17 660.32 63.01 612.05 72.17 660.32 82.85 660.32 132 621.65 132.04 582.98 124.17 578.81 124 578.61 31.96"/><polygon class="cls-1" points="482.67 41 525.82 39.52 562.47 31.17 562.47 124.5 525.9 130.67 482.67 132 482.67 83.23 527.25 73.28 482.67 62.41 482.67 41"/><polygon class="cls-2" points="546.4 95.67 552.75 95.85 552.63 93.67 558.65 93.5 562.49 93.5 562.49 106.91 558.16 106.91 558.12 105.68 552.2 105.72 552.12 104.13 546.37 104.72 543.87 104.56 534.04 103.6 534.04 100.21 540.41 99.64 546.33 99.47 546.4 95.67"/><polyline class="cls-2" points="578.25 91.85 616.94 101.78 578.25 111.1"/><polygon class="cls-1" points="773.15 33.5 810.9 39.75 851.65 39.75 851.65 63.34 805.15 72.83 851.65 83.34 851.65 133 808.15 133 773.15 125.34 773.15 33.5"/><polygon class="cls-1" points="672.48 39.52 716.82 40 753.82 32.67 754.36 123.67 711.23 133 672.48 133 672.48 82.32 717.65 72.34 672.48 62.86 672.48 39.52"/><polygon class="cls-2" points="738.24 98.32 744.7 98.23 744.59 96.31 751.24 96.44 754.36 96.44 754.36 107.96 750.03 107.96 749.99 106.73 744.07 106.77 743.99 105.18 738.24 105.77 735.74 105.61 725.91 104.65 725.91 102.44 732.28 100.69 738.2 100.52 738.24 98.32"/><polyline class="cls-2" points="772.12 94.9 810.81 104.83 772.12 114.15"/><polygon class="cls-1" points="772.32 184.81 812.4 175.84 850.48 175.84 850.48 205.49 803.19 216.22 850.48 227.07 850.48 268 809.65 268 772.32 275.67 772.32 184.81"/><polygon class="cls-1" points="675.32 175.84 714.73 175.84 754.15 184 754.15 275.67 713.48 267.67 675.32 267.84 675.32 225.59 722.15 216.22 675.32 205.19 675.32 175.84"/><polygon class="cls-2" points="737.47 203.63 743.93 203.55 743.82 201.62 750.47 201.76 753.59 201.76 753.59 213.28 749.26 213.28 749.22 212.05 743.3 212.09 743.22 210.5 737.47 211.09 734.97 210.92 725.14 209.97 725.14 207.76 731.51 206.01 737.43 205.84 737.47 203.63"/><polyline class="cls-2" points="771.35 200.22 810.04 210.15 771.35 219.47"/><polygon class="cls-1" points="578.61 179.73 618.47 171 658.32 171 658.32 205.35 610.44 215.5 658.32 225.81 658.32 266.84 621.32 266.67 579.32 275.67 578.61 179.73"/><polygon class="cls-1" points="483.59 172.34 524.73 172.34 562.03 180 562.48 275.67 525.48 266.92 483.59 267.5 483.39 225.59 528.32 216.22 483.59 207.15 483.59 172.34"/><polygon class="cls-2" points="546.3 203.63 552.76 203.55 552.65 201.62 559.3 201.76 562.42 201.76 562.42 213.28 558.09 213.28 558.05 212.05 552.13 212.09 552.05 210.5 546.3 211.09 543.8 210.92 533.97 209.97 533.97 207.76 540.34 206.01 546.26 205.84 546.3 203.63"/><polyline class="cls-2" points="578.18 199.22 616.87 209.15 578.18 218.47"/><polygon class="cls-1" points="387.31 154.34 429.98 154.34 471.78 146.42 471.97 267.84 423.15 267.67 387.48 276.67 387.31 154.34"/><polygon class="cls-1" points="290.81 146.67 326.15 154 368.98 154 368.98 275.67 332.65 267.34 289.81 267.84 289.81 225.56 331.96 216.32 289.81 206.44 290.81 146.67"/><polygon class="cls-2" points="354.51 203.63 360.97 203.55 360.86 201.62 367.51 201.76 370.63 201.76 370.63 213.28 366.3 213.28 366.26 212.05 360.34 212.09 360.26 210.5 354.51 211.09 352.01 210.92 342.18 209.97 342.18 207.76 348.55 206.01 354.47 205.84 354.51 203.63"/><polyline class="cls-2" points="386.39 199.22 425.08 209.15 386.39 218.47"/><polygon class="cls-1" points="293.04 65.28 293.02 55.42 334.27 55.17 369.86 47.61 369.86 127.3 331.16 134.79 292.48 134.23 292.48 80.34 331.51 73 293.04 65.28"/><polygon class="cls-2" points="354.94 111.63 361.4 111.55 361.29 109.62 367.94 109.75 371.06 109.75 371.06 121.27 366.73 121.27 366.69 120.05 360.77 120.09 360.69 118.49 354.94 119.09 352.44 118.92 342.61 117.96 342.61 115.75 348.98 114 354.9 113.84 354.94 111.63"/><polygon class="cls-1" points="387.32 46.17 429.69 54.67 472.57 54.5 472.57 62.34 422.65 72.67 472.57 84.02 472.57 134 427.31 134 386.81 128.15 387.32 46.17"/><polyline class="cls-2" points="385.82 107.21 424.51 117.14 385.82 126.46"/><polygon class="cls-1" points="193.9 167.17 236.09 157.92 278.27 157.92 278.27 205.67 231.81 215.98 278.27 226.67 278.27 263.05 234.15 263.42 193.9 269.34 193.9 167.17"/><polyline class="cls-2" points="193.16 198.59 231.84 208.52 193.16 217.84"/><polygon class="cls-1" points="194.06 15.01 235.77 22.67 274.4 22.67 274.4 62.94 231.27 72.77 274.4 83.42 274.4 128 236.65 128 198.02 119.55 194.16 119.54 193.9 98.05 193.9 88.17 194.16 78.17 194.06 15.01"/><polyline class="cls-2" points="193.16 78.17 231.84 88.1 193.16 97.42"/><polygon class="cls-2" points="863.07 146.41 904.48 154 947.65 154 947.65 277.84 904.48 277.84 860.05 287.2 825.65 280.34 863.15 280.5 863.15 226.5 913.65 216.73 862.84 205.09 863.07 146.41"/><polygon class="cls-3" points="731.02 181.47 742.71 181.47 742.71 184.84 735.34 190.53 735.34 193.91 737.27 193.91 737.21 192.78 742.15 192.78 742.15 195.28 739.71 197.53 737.27 197.53 737.27 198.81 733.46 198.81 733.21 197.41 731.65 197.41 731.59 196.53 730.52 196.27 730.52 189.59 732.09 189.53 732.09 188.28 733.02 188.28 733.02 187.22 734.11 187.22 734.11 185.97 736.62 185.97 736.62 185.16 733.21 185.09 733.21 186.16 730.9 186.16 731.02 181.47"/><polygon class="cls-2" points="771.4 20.5 771.4 11.17 815.48 11.17 859.05 2.82 904.65 11.33 947.65 11.33 947.65 134.33 904.48 134.33 863.72 142.93 863.98 83.67 912.98 73.28 863.49 62.49 864.15 27.67 810.81 27.84 771.4 20.5"/><polygon class="cls-3" points="684.37 37.69 690.12 37.69 690.12 38.78 691.2 38.78 691.2 41.36 685.53 41.36 685.53 42.15 684.12 42.15 684.12 44.36 685.41 44.36 685.41 45.44 687.66 45.44 687.66 48.86 686.45 48.86 686.45 49.99 685.28 49.99 685.28 51.28 686.45 51.28 686.45 52.19 686.99 52.19 686.99 51.36 690.87 51.32 690.83 53.49 689.91 53.49 689.95 54.78 687.66 54.78 687.66 55.74 683.24 55.74 683.24 54.78 680.91 54.82 680.91 48.19 682.03 48.24 682.03 47.65 681.08 47.57 680.91 46.53 679.99 46.49 679.99 41.11 680.87 41.07 680.91 39.03 684.33 38.99 684.37 37.69"/><polygon class="cls-3" points="729.45 38.67 741.14 38.67 741.14 42.05 733.76 47.74 733.76 51.11 735.7 51.11 735.64 49.99 740.58 49.99 740.58 52.49 738.14 54.74 735.7 54.74 735.7 56.01 731.89 56.01 731.64 54.61 730.08 54.61 730.01 53.74 728.95 53.47 728.95 46.8 730.51 46.74 730.51 45.49 731.45 45.49 731.45 44.42 732.53 44.42 732.53 43.17 735.04 43.17 735.04 42.36 731.64 42.3 731.64 43.36 729.33 43.36 729.45 38.67"/><polygon class="cls-3" points="682.33 89.55 690.14 89.55 690.14 90.61 691.11 90.61 691.11 96.27 689.64 96.27 689.67 97.49 690.83 97.49 690.83 98.67 692.14 98.67 692.14 104.17 690.86 104.17 690.83 105.17 689.76 105.17 689.73 106.36 682.17 106.36 682.17 105.39 681.08 105.39 681.08 104.14 679.83 104.17 679.83 98.77 681.04 98.77 681.04 97.61 682.14 97.64 682.14 97.02 681.17 97.02 681.17 90.83 682.17 90.83 682.33 89.55"/><polygon class="cls-3" points="730.58 92.61 730.58 89.32 737.24 89.32 737.24 102.99 739.53 102.99 739.53 106.57 730.33 106.57 730.33 102.86 732.78 102.9 732.74 92.69 730.58 92.61"/><polygon class="cls-3" points="791.39 37.42 796.83 37.42 796.83 41.3 792.33 41.3 792.26 42.42 791.01 42.42 791.01 45.61 792.33 45.61 792.26 46.61 796.83 46.61 796.83 55.11 786.27 55.11 786.27 52.55 787.62 52.55 787.62 51.36 793.12 51.3 793.12 50.11 789.09 50.11 789.09 49.05 787.95 48.99 787.95 47.74 786.95 47.67 786.78 41.11 787.53 41.05 787.62 39.99 788.7 39.99 788.7 38.74 791.14 38.74 791.39 37.42"/><polygon class="cls-3" points="790.14 89.49 796.76 89.49 796.76 93.11 793.45 93.11 793.45 93.8 792.14 93.8 792.14 94.61 791.01 94.61 791.01 95.3 795.39 95.3 795.33 96.36 797.7 96.36 797.7 104.36 797.01 104.36 796.95 105.42 795.76 105.42 795.76 106.55 789.2 106.55 789.2 105.36 787.89 105.42 787.89 104.24 786.78 104.24 786.78 93.8 787.45 93.8 787.45 91.99 789.09 91.99 789.09 90.67 789.95 90.61 790.14 89.49"/><polygon class="cls-3" points="786.95 109.86 801.62 109.86 801.62 112.17 786.78 112.17 786.95 109.86"/><polygon class="cls-3" points="833.42 39.75 842.3 39.75 842.3 41.78 839.7 41.78 839.7 43.09 846.67 43.09 846.67 47.62 845.39 47.62 845.39 48.72 844.33 48.72 844.33 50.87 843.26 50.87 843.26 52.09 842.08 52.09 842.14 54.31 840.89 54.31 840.92 55.53 835.64 55.53 835.67 46.31 833.42 46.34 833.42 43.34 835.48 43.34 835.51 41.81 833.42 41.81 833.42 39.75"/><polygon class="cls-3" points="835.58 90.47 846.74 90.47 846.74 94.97 845.45 94.97 845.49 98.34 844.49 98.34 844.45 101.8 843.28 101.8 843.28 104.01 842.2 104.01 842.2 107.34 837.83 107.34 837.83 103.84 838.95 103.84 838.91 100.67 839.99 100.63 839.99 98.47 841.16 98.42 841.16 96.26 842.28 96.26 842.33 94.76 838.7 94.76 838.7 96.05 835.58 95.97 835.58 90.47"/><polygon class="cls-3" points="300.53 180.96 306.28 180.96 306.28 182.04 307.36 182.04 307.36 184.63 301.7 184.63 301.7 185.42 300.28 185.42 300.28 187.63 301.57 187.63 301.57 188.71 303.82 188.71 303.82 192.13 302.61 192.13 302.61 193.25 301.45 193.25 301.45 194.54 302.61 194.54 302.61 195.46 303.16 195.46 303.16 194.63 307.03 194.59 306.99 196.75 306.07 196.75 306.11 198.04 303.82 198.04 303.82 199 299.41 199 299.41 198.04 297.07 198.09 297.07 191.46 298.2 191.5 298.2 190.92 297.24 190.84 297.07 189.79 296.16 189.75 296.16 184.38 297.03 184.34 297.07 182.29 300.49 182.25 300.53 180.96"/><polygon class="cls-3" points="345.61 181.94 357.3 181.94 357.3 185.31 349.93 191 349.93 194.38 351.86 194.38 351.8 193.25 356.74 193.25 356.74 195.75 354.3 198 351.86 198 351.86 199.28 348.05 199.28 347.8 197.88 346.24 197.88 346.18 197 345.11 196.74 345.11 190.06 346.68 190 346.68 188.75 347.61 188.75 347.61 187.69 348.7 187.69 348.7 186.44 351.21 186.44 351.21 185.63 347.8 185.56 347.8 186.63 345.49 186.63 345.61 181.94"/><polygon class="cls-3" points="298.49 232.81 306.3 232.81 306.3 233.88 307.27 233.88 307.27 239.53 305.8 239.53 305.83 240.75 306.99 240.75 306.99 241.94 308.3 241.94 308.3 247.44 307.02 247.44 306.99 248.44 305.93 248.44 305.9 249.63 298.33 249.63 298.33 248.66 297.24 248.66 297.24 247.41 295.99 247.44 295.99 242.03 297.21 242.03 297.21 240.88 298.3 240.91 298.3 240.28 297.33 240.28 297.33 234.09 298.33 234.09 298.49 232.81"/><polygon class="cls-3" points="346.74 235.88 346.74 232.59 353.41 232.59 353.41 246.25 355.7 246.25 355.7 249.84 346.49 249.84 346.49 246.13 348.95 246.17 348.91 235.96 346.74 235.88"/><polygon class="cls-3" points="407.55 180.69 412.99 180.69 412.99 184.56 408.49 184.56 408.43 185.69 407.18 185.69 407.18 188.88 408.49 188.88 408.43 189.88 412.99 189.88 412.99 198.38 402.43 198.38 402.43 195.81 403.78 195.81 403.78 194.63 409.28 194.56 409.28 193.38 405.25 193.38 405.25 192.31 404.11 192.25 404.11 191 403.11 190.94 402.95 184.38 403.69 184.31 403.78 183.25 404.86 183.25 404.86 182 407.3 182 407.55 180.69"/><polygon class="cls-3" points="406.3 232.75 412.93 232.75 412.93 236.38 409.61 236.38 409.61 237.06 408.3 237.06 408.3 237.88 407.18 237.88 407.18 238.56 411.55 238.56 411.49 239.63 413.86 239.63 413.86 247.63 413.18 247.63 413.11 248.69 411.93 248.69 411.93 249.81 405.36 249.81 405.36 248.63 404.05 248.69 404.05 247.5 402.95 247.5 402.95 237.06 403.61 237.06 403.61 235.25 405.25 235.25 405.25 233.94 406.11 233.88 406.3 232.75"/><polygon class="cls-3" points="403.11 253.13 417.78 253.13 417.78 255.44 402.95 255.44 403.11 253.13"/><polygon class="cls-3" points="449.58 183.01 458.46 183.01 458.46 185.04 455.87 185.04 455.87 186.35 462.83 186.35 462.83 190.89 461.55 190.89 461.55 191.98 460.49 191.98 460.49 194.14 459.43 194.14 459.43 195.35 458.24 195.35 458.3 197.57 457.05 197.57 457.08 198.79 451.8 198.79 451.83 189.57 449.58 189.6 449.58 186.6 451.65 186.6 451.68 185.07 449.58 185.07 449.58 183.01"/><polygon class="cls-3" points="451.74 233.73 462.91 233.73 462.91 238.23 461.62 238.23 461.66 241.6 460.66 241.6 460.62 245.06 459.45 245.06 459.45 247.27 458.37 247.27 458.37 250.6 453.99 250.6 453.99 247.1 455.12 247.1 455.07 243.94 456.16 243.9 456.16 241.73 457.32 241.69 457.32 239.52 458.45 239.52 458.49 238.02 454.87 238.02 454.87 239.31 451.74 239.23 451.74 233.73"/><polygon class="cls-3" points="599.77 36.42 605.21 36.42 605.21 40.3 600.71 40.3 600.65 41.42 599.4 41.42 599.4 44.61 600.71 44.61 600.65 45.61 605.21 45.61 605.21 54.11 594.65 54.11 594.65 51.55 596 51.55 596 50.36 601.5 50.3 601.5 49.11 597.47 49.11 597.47 48.05 596.34 47.99 596.34 46.74 595.34 46.67 595.17 40.11 595.91 40.05 596 38.99 597.09 38.99 597.09 37.74 599.52 37.74 599.77 36.42"/><polygon class="cls-3" points="598.52 88.49 605.15 88.49 605.15 92.11 601.84 92.11 601.84 92.8 600.52 92.8 600.52 93.61 599.4 93.61 599.4 94.3 603.77 94.3 603.71 95.36 606.09 95.36 606.09 103.36 605.4 103.36 605.34 104.42 604.15 104.42 604.15 105.55 597.59 105.55 597.59 104.36 596.27 104.42 596.27 103.24 595.17 103.24 595.17 92.8 595.84 92.8 595.84 90.99 597.47 90.99 597.47 89.67 598.34 89.61 598.52 88.49"/><polygon class="cls-3" points="595.34 108.86 610 108.86 610 111.17 595.17 111.17 595.34 108.86"/><polygon class="cls-3" points="641.81 38.75 650.68 38.75 650.68 40.78 648.09 40.78 648.09 42.09 655.06 42.09 655.06 46.62 653.77 46.62 653.77 47.72 652.71 47.72 652.71 49.87 651.65 49.87 651.65 51.09 650.46 51.09 650.52 53.31 649.27 53.31 649.31 54.53 644.02 54.53 644.06 45.31 641.81 45.34 641.81 42.34 643.87 42.34 643.9 40.81 641.81 40.81 641.81 38.75"/><polygon class="cls-3" points="643.96 89.47 655.13 89.47 655.13 93.97 653.84 93.97 653.88 97.34 652.88 97.34 652.84 100.8 651.67 100.8 651.67 103.01 650.59 103.01 650.59 106.34 646.21 106.34 646.21 102.84 647.34 102.84 647.3 99.67 648.38 99.63 648.38 97.47 649.55 97.42 649.55 95.26 650.67 95.26 650.71 93.76 647.09 93.76 647.09 95.05 643.96 94.97 643.96 89.47"/><polygon class="cls-3" points="492.97 38.34 498.59 38.34 498.59 39.5 499.93 39.5 499.93 42.09 494.01 42.09 494.01 43.13 492.72 43.13 492.72 45.05 493.72 45.05 493.76 46.55 496.32 46.55 496.32 49.59 494.88 49.59 494.88 50.71 493.63 50.71 493.63 51.88 494.84 51.88 494.84 52.75 499.34 52.75 499.26 54.25 498.34 54.25 498.38 55.8 496.13 55.8 496.13 56.84 491.63 56.84 491.63 55.55 489.09 55.63 489.09 48.5 490.59 48.5 490.47 47.75 488.38 47.59 488.38 41.96 489.34 41.96 489.43 39.5 492.72 39.46 492.97 38.34"/><polygon class="cls-4" points="477.52 35.72 477.4 166.92 525.96 166.92 562.47 174.67 578.81 174.67 618.15 166.67 666.39 166.92 666.39 34.09 617.83 34.53 576.22 25.92 564.73 25.92 523.46 34.9 477.52 35.72"/><polygon class="cls-3" points="345.44 39.62 345.44 43.84 348.25 43.84 348.25 42.52 351.07 42.52 351.07 43.68 349 43.65 348.94 45.21 347.25 45.21 347.25 45.93 346.13 45.93 346.13 47.05 345.03 47.05 345.03 54.24 346.1 54.24 346.1 55.24 347.32 55.24 347.35 56.52 352.13 56.52 352.13 55.37 354.1 55.37 354.1 54.09 355.44 54.12 355.44 53.02 356.38 53.02 356.38 50.87 351.85 50.87 351.85 51.96 349.5 51.99 349.47 48.49 350.71 48.49 350.71 47.24 351.94 47.24 351.82 45.96 352.94 45.99 352.97 44.93 354.25 44.96 354.13 43.96 355.19 43.93 355.19 42.68 356.38 42.68 356.38 39.52 345.44 39.62"/><polygon class="cls-3" points="407.38 38.46 412.96 38.46 412.96 41.92 408.38 41.92 408.42 43.17 407.13 43.17 407.13 46.5 408.25 46.5 408.25 47.38 412.75 47.38 412.79 55.59 402.67 55.59 402.67 53.71 404.21 53.67 404.17 52.21 409.67 52.25 409.54 50.88 405 50.92 404.88 49.8 403.92 49.8 403.88 48.63 402.67 48.63 402.67 42.05 404.04 42 404 40.92 405.13 40.92 405.08 39.8 407.42 39.75 407.38 38.46"/><polygon class="cls-5" points="88.95 132.97 88.95 14.84 136.65 14.84 172.73 7.59 172.73 5.93 178.73 5.93 178.73 5 191.98 5 191.98 5.93 197.98 5.93 234.32 13.09 234.32 14.84 283.65 14.42 283.65 44.42 330.57 44.42 373.07 35 386.45 35 430.65 44.42 473.15 44.42 473.15 49.75 429.98 49.75 385.48 41.42 373.32 41.25 333.57 49.75 287.4 49.75 287.23 135.5 280.15 135.5 279.79 138.34 228.82 138.34 192.98 131.79 192.98 130.31 179.32 130.31 179.15 131.79 139.23 139 92.07 138.67 92.07 149.59 135.9 149.59 138.59 150.08 181.48 157.92 191.9 157.92 232.98 149.42 279.79 149.5 279.79 152.75 235.77 152.92 191.94 162.63 179.98 162.63 138.73 154.42 138.07 152.92 91.9 153 91.82 229.34 91.82 268.42 135.82 268.42 178.98 275.75 178.98 277 191.9 277 191.73 275.17 232.9 268.59 279.79 268.5 279.79 270.67 281.67 270.75 281.79 271.67 283.65 271.67 283.65 274 235.15 273.59 192.48 283.67 178.73 283.67 136.48 274.67 88.37 274.84 88.37 251.34 88.37 211.59 88.37 183.42 88.37 159.25 88.37 141.72 88.95 141.72 88.95 132.97"/><polygon class="cls-5" points="91.53 132.97 91.53 17.67 137.65 17.67 179.57 9.42 192.98 9.42 233.4 17.67 234.32 17.67 279.79 17.67 279.79 132.97 235.77 132.97 197.32 124.84 179.57 124.84 136.51 132.97 91.53 132.97"/><path class="cls-2" d="M1.35,11.29c14.32,0,43,0,43,0L89.22.88l37.51,8.87H84.33V64L44,74.1l40.33,7.57v62.76L46.5,136.71l-45.15,0Z" transform="translate(-0.85 -0.33)"/><path class="cls-3" d="M63.25,30.35c4.37-.16,11.25,0,11.25,0v2.26H71.77l.07,2h8.6v5.78l-2,0,0,2.56H76.11l0,1.93-1.45,0,0,2.95L73.07,48l0,1.85H66.38l.15-11.64h-3.2V34.56l3.36.08-.08-1.79-3.28-.08Z" transform="translate(-0.85 -0.33)"/><polygon class="cls-3" points="21.84 28.93 28.2 28.93 28.2 33.04 22.41 33.04 22.41 34.39 20.96 34.39 20.96 38.87 22.26 38.87 22.31 40.54 28.2 40.54 28.2 50.28 15.64 50.28 15.64 47.31 17.05 47.31 17.1 45.9 24.03 45.9 23.93 44.24 18.61 44.24 18.51 42.83 17 42.78 16.89 41.53 15.64 41.48 15.64 33.09 17.05 33.09 17.05 32 18.51 32 18.4 30.64 21.43 30.54 21.32 28.93 21.84 28.93"/><polygon class="cls-3" points="20.55 91.42 28.99 91.42 28.99 95.84 24.77 95.84 24.77 97.04 22.95 97.04 23 97.98 21.38 97.98 21.38 98.92 26.8 98.92 26.85 100.37 30.08 100.37 30.08 109.85 28.68 109.85 28.62 111.21 27.32 111.21 27.27 112.72 19.14 112.72 19.14 111.31 17.79 111.26 17.79 109.8 16.02 109.8 16.02 96.99 17.27 97.04 17.32 94.75 19.09 94.8 18.99 93.13 20.45 93.13 20.55 91.42"/><rect class="cls-3" x="16.7" y="117.09" width="17.45" height="2.55"/><polygon class="cls-3" points="63.8 91.55 78.18 91.55 78.18 96.81 75.84 96.81 75.94 101.55 74.74 101.55 74.74 106.23 73.34 106.23 73.34 108.47 71.77 108.47 71.72 113.16 66.36 113.16 66.41 108.89 67.87 108.89 67.92 104.46 69.17 104.46 69.12 101.81 70.63 101.75 70.63 98.84 72.03 98.84 71.98 97.33 67.66 97.17 67.61 98.89 64.01 98.73 63.8 91.55"/><polyline class="cls-1" points="176.15 96.8 176.52 99.09 176.52 120.09 135.73 128 96.69 127.59 96.69 82.8 100.9 82.8 138.27 72.77 96.93 63.34 96.96 23.17 138.96 22.98 176.52 15.42 176.68 73.86 176.68 75.67"/><polyline class="cls-6" points="176.68 75.67 173.9 78.3 165.52 78.3 163.17 80.17 156.98 82.19 155.52 82.92 151.02 83.3 144.38 85.06 140.4 86.41 136.77 87.77 139.65 89.17 147.77 90.05 155.27 90.55 159.77 92.23 162.75 92.63 164.4 94.01 168.35 94.01 169.65 94.67 174.77 95.67 176.15 96.8"/><polygon class="cls-3" points="107.23 38.09 112.86 38.09 112.86 39.25 114.19 39.25 114.19 41.84 108.27 41.84 108.27 42.88 106.98 42.88 106.98 44.8 107.98 44.8 108.02 46.3 110.59 46.3 110.59 49.34 109.15 49.34 109.15 50.46 107.9 50.46 107.9 51.63 109.11 51.63 109.11 52.5 113.61 52.5 113.52 54 112.61 54 112.65 55.55 110.4 55.55 110.4 56.59 105.9 56.59 105.9 55.3 103.36 55.38 103.36 48.25 104.86 48.25 104.73 47.5 102.65 47.34 102.65 41.71 103.61 41.71 103.69 39.25 106.98 39.21 107.23 38.09"/><polygon class="cls-3" points="104.9 90.05 112.62 90.05 112.62 91.08 113.77 91.08 113.77 96.61 112.49 96.61 112.49 97.83 113.77 97.83 113.77 99.08 114.96 99.08 114.96 104.76 113.65 104.76 113.65 105.76 112.49 105.76 112.49 106.98 104.9 107.08 104.9 105.86 103.87 105.89 103.87 104.48 102.56 104.51 102.56 99.08 103.68 99.11 103.68 98.3 104.93 98.3 104.9 97.7 103.68 97.7 103.65 91.3 104.87 91.3 104.9 90.05"/><polygon class="cls-3" points="155.59 94.01 155.59 103.58 153.18 103.58 153.18 107.05 162.31 107.05 162.31 103.67 159.71 103.64 159.68 94.33 156.59 94.33 155.59 94.01"/><polygon class="cls-2" points="161.27 82.59 167.73 82.5 167.62 80.58 174.27 80.71 177.39 80.71 177.39 92.23 173.06 92.23 173.02 91 167.11 91.05 167.02 89.45 161.27 90.05 158.77 89.88 148.94 88.92 148.94 86.71 155.31 84.96 161.23 84.8 161.27 82.59"/><polygon class="cls-2" points="83.19 145.62 44.4 153.42 0.5 153.42 0.5 235.42 0.5 278.3 45.15 278.3 89.36 286.92 122.77 280.3 82.98 280.17 83.31 225.06 38.15 215.79 83.52 207.23 83.19 145.62"/><polyline class="cls-6" points="176.81 194.67 174.06 194.73 174.06 196.9 163.29 196.9 163.23 198.5 158.73 198.5 158.4 199.44 156.96 199.44 156.96 201.29 151 201.36 150.9 203.04 144.59 202.92 144.52 204.29 138.65 204.29 138.71 206.23 133.52 206.17 133.03 210.54 135.84 210.98 140.9 211.92 143.23 212.25 155.27 213.42 156.09 214.67 163.02 214.73 163.43 216.32 168.4 216.32 168.58 217.53 173.9 217.48 174.01 219.86 176.4 219.79"/><polyline class="cls-1" points="176.4 219.79 176.57 269.92 136.52 263.42 97.4 263.3 97.4 224.84 138.56 215.92 97.4 206.67 97.4 158.5 134.46 158.11 136.46 159.29 176.81 167.59 176.81 194.67"/><polygon class="cls-3" points="107.06 181.13 112.81 181.13 112.81 182.21 113.9 182.21 113.9 184.79 108.23 184.79 108.23 185.59 106.81 185.59 106.81 187.79 108.11 187.79 108.11 188.88 110.36 188.88 110.36 192.29 109.15 192.29 109.15 193.42 107.98 193.42 107.98 194.71 109.15 194.71 109.15 195.63 109.69 195.63 109.69 194.79 113.56 194.75 113.52 196.92 112.61 196.92 112.65 198.21 110.36 198.21 110.36 199.17 105.94 199.17 105.94 198.21 103.61 198.25 103.61 191.63 104.73 191.67 104.73 191.09 103.77 191 103.61 189.96 102.69 189.92 102.69 184.54 103.56 184.5 103.61 182.46 107.02 182.42 107.06 181.13"/><polygon class="cls-3" points="152.15 182.11 163.84 182.11 163.84 185.48 156.46 191.17 156.46 194.54 158.4 194.54 158.34 193.42 163.27 193.42 163.27 195.92 160.84 198.17 158.4 198.17 158.4 199.44 154.59 199.44 154.34 198.04 152.77 198.04 152.71 197.17 151.65 196.9 151.65 190.23 153.21 190.17 153.21 188.92 154.15 188.92 154.15 187.86 155.23 187.86 155.23 186.61 157.74 186.61 157.74 185.79 154.34 185.73 154.34 186.79 152.02 186.79 152.15 182.11"/><polygon class="cls-3" points="105.02 232.98 112.84 232.98 112.84 234.04 113.81 234.04 113.81 239.7 112.34 239.7 112.37 240.92 113.52 240.92 113.52 242.11 114.84 242.11 114.84 247.61 113.56 247.61 113.52 248.61 112.46 248.61 112.43 249.79 104.87 249.79 104.87 248.83 103.77 248.83 103.77 247.58 102.52 247.61 102.52 242.2 103.74 242.2 103.74 241.04 104.84 241.08 104.84 240.45 103.87 240.45 103.87 234.26 104.87 234.26 105.02 232.98"/><polygon class="cls-3" points="153.27 236.04 153.27 232.75 159.94 232.75 159.94 246.42 162.23 246.42 162.23 250 153.02 250 153.02 246.29 155.48 246.34 155.44 236.13 153.27 236.04"/><polygon class="cls-3" points="214.09 180.86 219.52 180.86 219.52 184.73 215.02 184.73 214.96 185.86 213.71 185.86 213.71 189.04 215.02 189.04 214.96 190.04 219.52 190.04 219.52 198.54 208.97 198.54 208.97 195.98 210.32 195.98 210.32 194.79 215.81 194.73 215.81 193.54 211.78 193.54 211.78 192.48 210.65 192.42 210.65 191.17 209.65 191.11 209.48 184.54 210.22 184.48 210.32 183.42 211.4 183.42 211.4 182.17 213.84 182.17 214.09 180.86"/><polygon class="cls-3" points="212.84 232.92 219.46 232.92 219.46 236.54 216.15 236.54 216.15 237.23 214.84 237.23 214.84 238.04 213.71 238.04 213.71 238.73 218.09 238.73 218.02 239.79 220.4 239.79 220.4 247.79 219.71 247.79 219.65 248.86 218.46 248.86 218.46 249.98 211.9 249.98 211.9 248.79 210.59 248.86 210.59 247.67 209.48 247.67 209.48 237.23 210.15 237.23 210.15 235.42 211.78 235.42 211.78 234.11 212.65 234.04 212.84 232.92"/><polygon class="cls-3" points="209.65 253.29 224.31 253.29 224.31 255.61 209.48 255.61 209.65 253.29"/><polygon class="cls-2" points="173.56 201.25 176.81 201.25 176.81 213.09 173.09 213.09 172.98 211.5 167.06 211.67 166.94 210.33 159.98 210.17 152.65 209.42 147.98 208.22 155.06 205.84 161.54 205.93 161.38 202.77 167.61 202.84 167.81 201.25 173.56 201.25"/><polygon class="cls-3" points="256.12 183.18 264.99 183.18 264.99 185.21 262.4 185.21 262.4 186.52 269.37 186.52 269.37 191.06 268.09 191.06 268.09 192.15 267.02 192.15 267.02 194.31 265.96 194.31 265.96 195.52 264.77 195.52 264.84 197.74 263.59 197.74 263.62 198.96 258.34 198.96 258.37 189.74 256.12 189.77 256.12 186.77 258.18 186.77 258.21 185.24 256.12 185.24 256.12 183.18"/><polygon class="cls-3" points="258.27 233.9 269.44 233.9 269.44 238.4 268.15 238.4 268.19 241.77 267.19 241.77 267.15 245.23 265.98 245.23 265.98 247.44 264.9 247.44 264.9 250.77 260.52 250.77 260.52 247.27 261.65 247.27 261.61 244.11 262.69 244.06 262.69 241.9 263.86 241.86 263.86 239.69 264.98 239.69 265.02 238.19 261.4 238.19 261.4 239.48 258.27 239.4 258.27 233.9"/><polygon class="cls-7" points="133.52 208.5 141.15 208.5 141.15 206.53 146.9 206.53 146.9 205.28 153.15 205.28 153.15 203.65 159.15 203.65 159.15 200.9 165.52 200.9 165.52 199.03 176.02 199.03 176.02 196.9 191.15 196.9 191.15 198.9 195.77 198.9 195.77 200.15 200.77 200.15 200.77 201.78 206.9 201.78 206.9 203.53 213.15 203.53 213.15 205.03 218.65 205.03 218.65 206.4 225.52 206.53 234.77 208.5 225.27 210.15 225.27 212.15 218.27 212.15 218.27 213.53 211.65 213.53 211.65 214.78 206.52 214.78 206.52 216.03 200.02 216.03 200.02 217.65 192.97 217.65 192.97 219.53 182.77 219.53 182.4 217.53 176.15 217.53 175.9 215.28 170.78 215.28 170.78 214.03 165.27 214.03 165.02 212.53 157.71 212.53 157.71 211.28 153.02 211.28 133.52 208.5"/><polygon class="cls-7" points="327.82 117.12 335.45 117.12 335.45 115.15 341.2 115.15 341.2 113.9 347.45 113.9 347.45 112.27 353.45 112.27 353.45 109.52 359.82 109.52 359.82 107.65 370.32 107.65 370.32 105.52 385.45 105.52 385.45 107.52 390.07 107.52 390.07 108.77 395.07 108.77 395.07 110.4 401.2 110.4 401.2 112.15 407.45 112.15 407.45 113.65 412.95 113.65 412.95 115.02 419.82 115.15 429.07 117.12 419.57 118.77 419.57 120.77 412.57 120.77 412.57 122.15 405.95 122.15 405.95 123.4 400.82 123.4 400.82 124.65 394.32 124.65 394.32 126.27 387.27 126.27 387.27 128.15 377.07 128.15 376.7 126.15 370.45 126.15 370.2 123.9 365.08 123.9 365.08 122.65 359.57 122.65 359.32 121.15 352 121.15 352 119.9 347.32 119.9 327.82 117.12"/><line class="cls-8" x1="177.39" y1="80.71" x2="177.39" y2="92.23"/><line class="cls-8" x1="176.82" y1="201.5" x2="176.82" y2="213.02"/><path class="cls-3" d="M257.36,40.13c3.5-.12,9,0,9,0v1.81h-2.18l.06,1.63h6.87v4.62l-1.6,0,0,2.05h-1.83l0,1.54-1.17,0,0,2.35-1.27.11,0,1.48h-5.32l.13-9.32h-2.56V43.51l2.68.06-.06-1.44-2.62-.06Z" transform="translate(-0.85 -0.33)"/><polygon class="cls-3" points="214.49 38.41 219.57 38.41 219.57 41.7 214.95 41.7 214.95 42.78 213.78 42.78 213.78 46.36 214.82 46.36 214.87 47.7 219.57 47.7 219.57 55.49 209.53 55.49 209.53 53.11 210.66 53.11 210.7 51.99 216.24 51.99 216.16 50.66 211.91 50.66 211.82 49.53 210.62 49.49 210.53 48.49 209.53 48.45 209.53 41.74 210.66 41.74 210.66 40.86 211.82 40.86 211.74 39.78 214.16 39.7 214.07 38.41 214.49 38.41"/><polygon class="cls-3" points="214.55 92.23 218.27 92.8 218.27 93.66 216.45 93.66 216.45 94.61 214.99 94.61 215.03 95.36 213.74 95.36 213.74 96.11 218.07 96.11 218.12 97.28 220.7 97.28 220.7 104.86 219.57 104.86 219.53 105.95 218.49 105.95 218.45 107.16 211.95 107.16 211.95 106.03 210.87 105.99 210.87 104.82 209.45 104.82 209.45 94.57 210.45 94.61 210.49 92.78 211.91 92.82 211.82 91.49 212.99 91.49 214.55 92.23"/><rect class="cls-3" x="209.99" y="110.66" width="13.96" height="2.04"/><polygon class="cls-3" points="259.28 90.07 270.78 90.07 270.78 94.28 268.91 94.28 268.99 98.07 268.03 98.07 268.03 101.82 266.91 101.82 266.91 103.61 265.66 103.61 265.62 107.36 261.32 107.36 261.37 103.95 262.53 103.95 262.57 100.41 263.57 100.41 263.53 98.28 264.74 98.24 264.74 95.91 265.87 95.91 265.82 94.7 262.37 94.57 262.32 95.95 259.45 95.82 259.28 90.07"/><polygon class="cls-7" points="133.52 87.77 141.15 87.77 141.15 85.8 146.9 85.8 146.9 84.55 153.15 84.55 153.15 82.92 159.15 82.92 159.15 80.17 165.52 80.17 165.52 78.3 176.02 78.3 176.02 76.17 191.15 76.17 191.15 78.17 195.77 78.17 195.77 79.42 200.77 79.42 200.77 81.05 206.9 81.05 206.9 82.8 213.15 82.8 213.15 84.3 218.65 84.3 218.65 85.67 225.52 85.8 234.77 87.77 225.27 89.42 225.27 91.42 218.27 91.42 218.27 92.8 211.65 92.8 211.65 94.05 206.52 94.05 206.52 95.3 200.02 95.3 200.02 96.92 192.97 96.92 192.97 98.8 182.77 98.8 182.4 96.8 176.15 96.8 175.9 94.55 170.78 94.55 170.78 93.3 165.27 93.3 165.02 91.8 157.71 91.8 157.71 90.55 153.02 90.55 133.52 87.77"/><polygon class="cls-3" points="406.5 90.38 412.88 90.38 412.88 93.71 409.5 93.71 409.5 94.8 408.17 94.8 408.17 95.71 407.13 95.71 407.13 96.3 411.83 96.3 411.83 97.25 413.92 97.25 413.92 104.88 412.88 104.88 412.88 106.05 411.67 106.05 411.67 107.17 405.13 107.17 405.13 106.17 404.08 106.17 404.08 105.05 402.92 105 402.92 94.8 403.75 94.8 403.75 92.8 405.04 92.84 404.96 91.67 406.25 91.67 406.5 90.38"/><polygon class="cls-3" points="452.42 90.42 463.58 90.42 463.58 94.92 462.29 94.92 462.33 98.3 461.33 98.3 461.29 101.75 460.13 101.75 460.13 103.96 459.04 103.96 459.04 107.3 454.67 107.3 454.67 103.8 455.79 103.8 455.75 100.63 456.83 100.59 456.83 98.42 458 98.38 458 96.21 459.13 96.21 459.17 94.71 455.54 94.71 455.54 96 452.42 95.92 452.42 90.42"/><polygon class="cls-3" points="297.1 90.32 304.92 90.32 304.92 91.39 305.88 91.39 305.88 97.04 304.42 97.04 304.45 98.26 305.6 98.26 305.6 99.45 306.92 99.45 306.92 104.95 305.63 104.95 305.6 105.95 304.54 105.95 304.51 107.14 296.95 107.14 296.95 106.17 295.85 106.17 295.85 104.92 294.6 104.95 294.6 99.54 295.82 99.54 295.82 98.39 296.92 98.42 296.92 97.79 295.95 97.79 295.95 91.6 296.95 91.6 297.1 90.32"/><polygon class="cls-3" points="345.35 92.57 345.35 89.27 352.02 89.27 352.02 102.94 354.31 102.94 354.31 106.52 345.1 106.52 345.1 102.82 347.56 102.86 347.52 92.65 345.35 92.57"/><polygon class="cls-3" points="490.21 90.31 498.02 90.31 498.02 91.38 498.99 91.38 498.99 97.03 497.52 97.03 497.55 98.25 498.71 98.25 498.71 99.44 500.02 99.44 500.02 104.94 498.74 104.94 498.71 105.94 497.65 105.94 497.61 107.13 490.05 107.13 490.05 106.16 488.96 106.16 488.96 104.91 487.71 104.94 487.71 99.53 488.93 99.53 488.93 98.38 490.02 98.41 490.02 97.78 489.05 97.78 489.05 91.59 490.05 91.59 490.21 90.31"/><polygon class="cls-3" points="152.15 38.92 163.84 38.92 163.84 42.29 156.46 47.98 156.46 51.36 158.4 51.36 158.34 50.23 163.27 50.23 163.27 52.73 160.84 54.98 158.4 54.98 158.4 56.26 154.59 56.26 154.34 54.86 152.77 54.86 152.71 53.98 151.65 53.72 151.65 47.04 153.21 46.98 153.21 45.73 154.15 45.73 154.15 44.67 155.23 44.67 155.23 43.42 157.74 43.42 157.74 42.61 154.34 42.54 154.34 43.61 152.02 43.61 152.15 38.92"/><polygon class="cls-3" points="537.88 39.17 549.57 39.17 549.57 42.54 542.2 48.23 542.2 51.61 544.13 51.61 544.07 50.48 549.01 50.48 549.01 52.98 546.57 55.23 544.13 55.23 544.13 56.51 540.32 56.51 540.07 55.11 538.51 55.11 538.45 54.23 537.38 53.97 537.38 47.29 538.95 47.23 538.95 45.98 539.88 45.98 539.88 44.92 540.97 44.92 540.97 43.67 543.48 43.67 543.48 42.86 540.07 42.79 540.07 43.86 537.76 43.86 537.88 39.17"/><polygon class="cls-3" points="538.63 93.39 538.63 90.09 545.3 90.09 545.3 103.76 547.59 103.76 547.59 107.34 538.38 107.34 538.38 103.64 540.84 103.68 540.8 93.47 538.63 93.39"/><polygon class="cls-7" points="521.59 208.63 529.22 208.63 529.22 206.66 534.97 206.66 534.97 205.41 541.22 205.41 541.22 203.78 547.22 203.78 547.22 201.03 553.59 201.03 553.59 199.16 564.09 199.16 564.09 197.03 579.22 197.03 579.22 199.03 583.84 199.03 583.84 200.28 588.84 200.28 588.84 201.91 594.97 201.91 594.97 203.66 601.22 203.66 601.22 205.16 606.72 205.16 606.72 206.53 613.59 206.66 622.84 208.63 613.34 210.28 613.34 212.28 606.34 212.28 606.34 213.66 599.72 213.66 599.72 214.91 594.59 214.91 594.59 216.16 588.09 216.16 588.09 217.78 581.04 217.78 581.04 219.66 570.84 219.66 570.47 217.66 564.22 217.66 563.97 215.41 558.85 215.41 558.85 214.16 553.34 214.16 553.09 212.66 545.77 212.66 545.77 211.41 541.09 211.41 521.59 208.63"/><polygon class="cls-7" points="711.23 103.73 718.86 103.73 718.86 101.76 724.61 101.76 724.61 100.51 730.86 100.51 730.86 98.88 736.86 98.88 736.86 96.13 743.23 96.13 743.23 94.26 753.73 94.26 753.73 92.13 768.86 92.13 768.86 94.13 773.48 94.13 773.48 95.38 778.48 95.38 778.48 97.01 784.61 97.01 784.61 98.76 790.86 98.76 790.86 100.26 796.36 100.26 796.36 101.63 803.23 101.76 812.48 103.73 802.98 105.38 802.98 107.38 795.98 107.38 795.98 108.76 789.36 108.76 789.36 110.01 784.23 110.01 784.23 111.26 777.73 111.26 777.73 112.88 770.68 112.88 770.68 114.76 760.48 114.76 760.11 112.76 753.86 112.76 753.61 110.51 748.49 110.51 748.49 109.26 742.98 109.26 742.73 107.76 735.41 107.76 735.41 106.51 730.73 106.51 711.23 103.73"/><polygon class="cls-7" points="709.66 209.12 717.28 209.12 717.28 207.15 723.03 207.15 723.03 205.9 729.28 205.9 729.28 204.27 735.28 204.27 735.28 201.52 741.66 201.52 741.66 199.65 752.16 199.65 752.16 197.52 767.28 197.52 767.28 199.52 771.91 199.52 771.91 200.77 776.91 200.77 776.91 202.4 783.03 202.4 783.03 204.15 789.28 204.15 789.28 205.65 794.78 205.65 794.78 207.02 801.66 207.15 810.91 209.12 801.41 210.77 801.41 212.77 794.41 212.77 794.41 214.15 787.78 214.15 787.78 215.4 782.66 215.4 782.66 216.65 776.16 216.65 776.16 218.27 769.11 218.27 769.11 220.15 758.91 220.15 758.53 218.15 752.28 218.15 752.03 215.9 746.92 215.9 746.92 214.65 741.41 214.65 741.16 213.15 733.84 213.15 733.84 211.9 729.16 211.9 709.66 209.12"/><polygon class="cls-9" points="477.52 130.84 477.52 273.54 524.14 273 564.73 282.13 580.15 281.67 621.38 273 664.77 273 663.99 130 621.15 130.17 580.48 119.34 562.47 119.5 519.98 130.85 477.52 130.84"/><polygon class="cls-9" points="668.91 138.76 711.23 138.76 754.84 129.3 764.74 129.3 807.39 138.76 856.8 138.76 856.8 274.14 809.83 274.14 771.4 281.67 754.84 282.13 713.15 274.14 668.91 274.14 668.91 138.76"/><polygon class="cls-9" points="666.39 34.09 715.82 34.09 756.52 25.93 768.19 25.93 809.83 34.09 857.54 34.09 857.54 169.67 810.91 169.67 771.4 178.67 757.93 178.67 715.15 169.34 667.14 169.66 666.39 34.09"/><path class="cls-10" d="M285.36,141c.14-.3,46.65.69,46.65.69l48.29-9.33,47.37,8.31h50.7V273.87H424L389.67,283h-15l-41.5-9.33-48.67.66Z" transform="translate(-0.85 -0.33)"/><polygon class="cls-11" points="327.01 209.12 334.63 209.12 334.63 207.15 340.38 207.15 340.38 205.9 346.63 205.9 346.63 204.28 352.63 204.28 352.63 201.53 359.01 201.53 359.01 199.65 369.51 199.65 369.51 197.53 385.65 197.53 385.65 199.53 389.26 199.53 389.26 200.78 394.26 200.78 394.26 202.4 400.38 202.4 400.38 204.15 406.63 204.15 406.63 205.65 412.13 205.65 412.13 207.03 419.01 207.15 428.26 209.12 418.76 210.78 418.76 212.78 411.76 212.78 411.76 214.15 405.13 214.15 405.13 215.4 400.01 215.4 400.01 216.65 393.51 216.65 393.51 218.28 386.46 218.28 386.46 220.15 376.26 220.15 375.88 218.15 369.63 218.15 369.38 215.9 364.26 215.9 364.26 214.65 358.76 214.65 358.51 213.15 351.19 213.15 351.19 211.9 346.51 211.9 327.01 209.12"/><polygon class="cls-12" points="518.84 101.76 526.47 101.76 526.47 99.78 532.22 99.78 532.22 98.53 538.47 98.53 538.47 96.91 544.47 96.91 544.47 94.16 550.84 94.16 550.84 92.28 561.34 92.28 561.34 90.16 576.47 90.16 576.47 92.16 581.09 92.16 581.09 93.41 586.09 93.41 586.09 95.03 592.22 95.03 592.22 96.78 598.47 96.78 598.47 98.28 603.97 98.28 603.97 99.66 610.84 99.78 620.09 101.76 610.59 103.41 610.59 105.41 603.59 105.41 603.59 106.78 596.97 106.78 596.97 108.03 591.84 108.03 591.84 109.28 585.34 109.28 585.34 110.91 578.29 110.91 578.29 113.78 568.09 113.78 567.89 112.17 561.61 112.1 561.22 108.53 556.1 108.53 556.1 107.28 550.59 107.28 550.34 105.78 543.02 105.78 543.02 104.53 538.34 104.53 518.84 101.76"/><polygon class="cls-3" points="493.2 180 498.95 180 498.95 181.09 500.03 181.09 500.03 183.67 494.36 183.67 494.36 184.46 492.95 184.46 492.95 186.67 494.24 186.67 494.24 187.75 496.49 187.75 496.49 191.17 495.28 191.17 495.28 192.29 494.11 192.29 494.11 193.59 495.28 193.59 495.28 194.5 495.82 194.5 495.82 193.67 499.7 193.63 499.65 195.79 498.74 195.79 498.78 197.09 496.49 197.09 496.49 198.04 492.07 198.04 492.07 197.09 489.74 197.13 489.74 190.5 490.86 190.54 490.86 189.96 489.9 189.88 489.74 188.84 488.82 188.79 488.82 183.42 489.7 183.38 489.74 181.34 493.15 181.29 493.2 180"/><polygon class="cls-3" points="538.28 180.98 549.97 180.98 549.97 184.36 542.59 190.04 542.59 193.42 544.53 193.42 544.47 192.29 549.4 192.29 549.4 194.79 546.97 197.04 544.53 197.04 544.53 198.32 540.72 198.32 540.47 196.92 538.9 196.92 538.84 196.04 537.78 195.78 537.78 189.11 539.34 189.04 539.34 187.79 540.28 187.79 540.28 186.73 541.36 186.73 541.36 185.48 543.87 185.48 543.87 184.67 540.47 184.61 540.47 185.67 538.15 185.67 538.28 180.98"/><polygon class="cls-3" points="491.15 231.86 498.97 231.86 498.97 232.92 499.94 232.92 499.94 238.58 498.47 238.58 498.5 239.79 499.65 239.79 499.65 240.98 500.97 240.98 500.97 246.48 499.69 246.48 499.65 247.48 498.59 247.48 498.56 248.67 491 248.67 491 247.7 489.9 247.7 489.9 246.45 488.65 246.48 488.65 241.08 489.87 241.08 489.87 239.92 490.97 239.95 490.97 239.33 490 239.33 490 233.14 491 233.14 491.15 231.86"/><polygon class="cls-3" points="539.4 234.92 539.4 231.63 546.07 231.63 546.07 245.29 548.36 245.29 548.36 248.88 539.15 248.88 539.15 245.17 541.61 245.21 541.57 235 539.4 234.92"/><polygon class="cls-3" points="600.22 179.73 605.65 179.73 605.65 183.61 601.15 183.61 601.09 184.73 599.84 184.73 599.84 187.92 601.15 187.92 601.09 188.92 605.65 188.92 605.65 197.42 595.1 197.42 595.1 194.86 596.45 194.86 596.45 193.67 601.95 193.61 601.95 192.42 597.92 192.42 597.92 191.36 596.78 191.29 596.78 190.04 595.78 189.98 595.61 183.42 596.36 183.36 596.45 182.29 597.53 182.29 597.53 181.04 599.97 181.04 600.22 179.73"/><polygon class="cls-3" points="598.97 231.79 605.59 231.79 605.59 235.42 602.28 235.42 602.28 236.11 600.97 236.11 600.97 236.92 599.84 236.92 599.84 237.61 604.22 237.61 604.15 238.67 606.53 238.67 606.53 246.67 605.84 246.67 605.78 247.73 604.59 247.73 604.59 248.86 598.03 248.86 598.03 247.67 596.72 247.73 596.72 246.54 595.61 246.54 595.61 236.11 596.28 236.11 596.28 234.29 597.92 234.29 597.92 232.98 598.78 232.92 598.97 231.79"/><polygon class="cls-3" points="595.78 252.17 610.44 252.17 610.44 254.48 595.61 254.48 595.78 252.17"/><polygon class="cls-3" points="642.25 182.06 651.13 182.06 651.13 184.09 648.53 184.09 648.53 185.4 655.5 185.4 655.5 189.93 654.22 189.93 654.22 191.02 653.16 191.02 653.16 193.18 652.09 193.18 652.09 194.4 650.91 194.4 650.97 196.62 649.72 196.62 649.75 197.84 644.47 197.84 644.5 188.62 642.25 188.65 642.25 185.65 644.31 185.65 644.34 184.12 642.25 184.12 642.25 182.06"/><polygon class="cls-3" points="644.41 232.77 655.57 232.77 655.57 237.27 654.28 237.27 654.32 240.65 653.32 240.65 653.28 244.11 652.12 244.11 652.12 246.31 651.03 246.31 651.03 249.65 646.66 249.65 646.66 246.15 647.78 246.15 647.74 242.98 648.82 242.94 648.82 240.77 649.99 240.73 649.99 238.56 651.12 238.56 651.16 237.06 647.53 237.06 647.53 238.36 644.41 238.27 644.41 232.77"/><polygon class="cls-3" points="685.94 180.49 691.69 180.49 691.69 181.57 692.77 181.57 692.77 184.16 687.11 184.16 687.11 184.95 685.69 184.95 685.69 187.16 686.98 187.16 686.98 188.24 689.23 188.24 689.23 191.66 688.02 191.66 688.02 192.78 686.86 192.78 686.86 194.07 688.02 194.07 688.02 194.99 688.57 194.99 688.57 194.16 692.44 194.12 692.4 196.28 691.48 196.28 691.52 197.57 689.23 197.57 689.23 198.53 684.82 198.53 684.82 197.57 682.48 197.62 682.48 190.99 683.61 191.03 683.61 190.45 682.65 190.37 682.48 189.32 681.57 189.28 681.57 183.91 682.44 183.87 682.48 181.82 685.9 181.78 685.94 180.49"/><polygon class="cls-3" points="683.9 232.34 691.71 232.34 691.71 233.41 692.68 233.41 692.68 239.06 691.21 239.06 691.24 240.28 692.4 240.28 692.4 241.47 693.71 241.47 693.71 246.97 692.43 246.97 692.4 247.97 691.34 247.97 691.31 249.16 683.74 249.16 683.74 248.19 682.65 248.19 682.65 246.94 681.4 246.97 681.4 241.56 682.62 241.56 682.62 240.41 683.71 240.44 683.71 239.81 682.74 239.81 682.74 233.63 683.74 233.63 683.9 232.34"/><polygon class="cls-3" points="732.15 235.41 732.15 232.12 738.82 232.12 738.82 245.78 741.11 245.78 741.11 249.37 731.9 249.37 731.9 245.66 734.36 245.7 734.32 235.49 732.15 235.41"/><polygon class="cls-3" points="792.96 180.22 798.4 180.22 798.4 184.09 793.9 184.09 793.84 185.22 792.59 185.22 792.59 188.41 793.9 188.41 793.84 189.41 798.4 189.41 798.4 197.91 787.84 197.91 787.84 195.34 789.19 195.34 789.19 194.16 794.69 194.09 794.69 192.91 790.66 192.91 790.66 191.84 789.52 191.78 789.52 190.53 788.52 190.47 788.36 183.91 789.1 183.84 789.19 182.78 790.27 182.78 790.27 181.53 792.71 181.53 792.96 180.22"/><polygon class="cls-3" points="791.71 232.28 798.34 232.28 798.34 235.91 795.02 235.91 795.02 236.59 793.71 236.59 793.71 237.41 792.59 237.41 792.59 238.09 796.96 238.09 796.9 239.16 799.27 239.16 799.27 247.16 798.59 247.16 798.52 248.22 797.34 248.22 797.34 249.34 790.77 249.34 790.77 248.16 789.46 248.22 789.46 247.03 788.36 247.03 788.36 236.59 789.02 236.59 789.02 234.78 790.66 234.78 790.66 233.47 791.52 233.41 791.71 232.28"/><polygon class="cls-3" points="788.52 252.66 803.19 252.66 803.19 254.97 788.36 254.97 788.52 252.66"/><polygon class="cls-3" points="835 182.54 843.87 182.54 843.87 184.57 841.28 184.57 841.28 185.88 848.25 185.88 848.25 190.42 846.96 190.42 846.96 191.51 845.9 191.51 845.9 193.67 844.84 193.67 844.84 194.88 843.65 194.88 843.71 197.1 842.46 197.1 842.5 198.32 837.21 198.32 837.25 189.1 835 189.13 835 186.13 837.06 186.13 837.09 184.6 835 184.6 835 182.54"/><polygon class="cls-3" points="837.15 233.26 848.32 233.26 848.32 237.76 847.03 237.76 847.07 241.13 846.07 241.13 846.03 244.59 844.86 244.59 844.86 246.8 843.78 246.8 843.78 250.13 839.4 250.13 839.4 246.63 840.53 246.63 840.48 243.47 841.57 243.43 841.57 241.26 842.73 241.22 842.73 239.05 843.86 239.05 843.9 237.55 840.28 237.55 840.28 238.84 837.15 238.76 837.15 233.26"/><polygon class="cls-3" points="878.11 31.66 885.29 31.66 885.29 33.01 886.65 33.01 886.65 36.24 879.57 36.24 879.57 37.23 877.79 37.23 877.79 39.99 879.41 39.99 879.41 41.34 882.22 41.34 882.22 45.62 880.71 45.62 880.71 47.02 879.25 47.02 879.25 48.64 880.71 48.64 880.71 49.78 881.39 49.78 881.39 48.74 886.23 48.69 886.18 51.4 885.03 51.4 885.09 53.01 882.22 53.01 882.22 54.21 876.7 54.21 876.7 53.01 873.78 53.06 873.78 44.78 875.19 44.83 875.19 44.1 873.99 44 873.78 42.7 872.64 42.65 872.64 35.93 873.73 35.88 873.78 33.32 878.05 33.27 878.11 31.66"/><polygon class="cls-3" points="921.09 32.1 935.7 32.1 935.7 36.32 926.48 43.42 926.48 47.64 928.91 47.64 928.83 46.24 935 46.24 935 49.36 931.95 52.17 928.91 52.17 928.91 53.77 924.14 53.77 923.83 52.02 921.88 52.02 921.8 50.92 920.47 50.59 920.47 42.25 922.42 42.17 922.42 40.61 923.59 40.61 923.59 39.28 924.95 39.28 924.95 37.72 928.09 37.72 928.09 36.71 923.83 36.63 923.83 37.96 920.94 37.96 921.09 32.1"/><polygon class="cls-3" points="875.07 94.4 884.84 94.4 884.84 95.73 886.05 95.73 886.05 102.8 884.21 102.8 884.25 104.32 885.7 104.32 885.7 105.81 887.34 105.81 887.34 112.68 885.74 112.68 885.7 113.93 884.37 113.93 884.33 115.42 874.88 115.42 874.88 114.21 873.51 114.21 873.51 112.64 871.95 112.68 871.95 105.93 873.47 105.93 873.47 104.48 874.84 104.52 874.84 103.74 873.63 103.74 873.63 96 874.88 96 875.07 94.4"/><polygon class="cls-3" points="924.5 97.86 924.5 93.74 932.84 93.74 932.84 110.83 935.7 110.83 935.7 115.31 924.19 115.31 924.19 110.67 927.26 110.72 927.21 97.96 924.5 97.86"/><polygon class="cls-2" points="239.22 9.42 279.79 2.78 326.4 10.96 369.87 10.96 369.87 30.72 329.9 39.52 289.15 39.52 288.8 9.42 239.22 9.42"/><polygon class="cls-2" points="386.45 11 386.45 29.71 430.98 39.52 472.57 39.16 472.57 30.5 521.65 30 562.82 21.15 562.82 11 518.84 11 474.07 2.78 435.48 11.16 386.45 11"/><polygon class="cls-2" points="578.61 21.15 578.61 10.84 621.98 10.84 665.91 2.3 711.23 11.15 753.82 11.15 753.82 20.17 715.48 27.84 660.32 27.84 660.32 29.5 618.65 29.5 578.61 21.15"/><polygon class="cls-1" points="483.59 147.55 483.59 162.17 527.98 162.17 562.47 169 562.47 154.34 519.82 154.17 483.59 147.55"/><polygon class="cls-1" points="578.61 154.17 578.61 169 618.47 161.17 658.32 161.84 658.32 146.55 622.84 153.17 578.61 154.17"/><polygon class="cls-2" points="440.81 279.67 513.98 279.67 475.37 286.67 440.81 279.67"/><polygon class="cls-1" points="675.32 146.67 675.32 163.67 717.48 163.5 754.15 171.84 754.15 154 711.15 153.84 675.32 146.67"/><polygon class="cls-2" points="626.82 278.34 699.65 280.42 666.91 286.38 626.82 278.34"/><polygon class="cls-1" points="772.32 154 772.32 172.5 810.04 163.34 850.48 163.34 850.48 147.14 815.15 154 772.32 154"/><polygon class="cls-2" points="241.77 279.17 319.9 279.67 281.42 287.67 241.77 279.17"/><path class="cls-3" d="M62.3,171.59c4.38-.16,11.25,0,11.25,0v2.26H70.82l.08,2h8.59v5.78l-2,0,0,2.56H75.17l0,1.93-1.45,0,0,2.95-1.59.13-.05,1.85H65.43l.15-11.64h-3.2V175.8l3.36.08-.08-1.79L62.38,174Z" transform="translate(-0.85 -0.33)"/><polygon class="cls-3" points="20.89 170.16 27.25 170.16 27.25 174.28 21.47 174.28 21.47 175.63 20.01 175.63 20.01 180.11 21.31 180.11 21.36 181.78 27.25 181.78 27.25 191.52 14.7 191.52 14.7 188.55 16.1 188.55 16.16 187.14 23.08 187.14 22.98 185.48 17.67 185.48 17.56 184.07 16.05 184.02 15.95 182.77 14.7 182.72 14.7 174.33 16.1 174.33 16.1 173.24 17.56 173.24 17.46 171.88 20.48 171.78 20.37 170.16 20.89 170.16"/><polygon class="cls-3" points="19.6 232.66 28.04 232.66 28.04 237.08 23.82 237.08 23.82 238.28 22 238.28 22.05 239.22 20.44 239.22 20.44 240.16 25.85 240.16 25.91 241.61 29.14 241.61 29.14 251.09 27.73 251.09 27.68 252.45 26.38 252.45 26.32 253.96 18.2 253.96 18.2 252.55 16.84 252.5 16.84 251.04 15.07 251.04 15.07 238.23 16.32 238.28 16.38 235.99 18.15 236.04 18.04 234.37 19.5 234.37 19.6 232.66"/><rect class="cls-3" x="15.75" y="258.33" width="17.45" height="2.55"/><polygon class="cls-3" points="62.86 232.78 77.23 232.78 77.23 238.04 74.89 238.04 74.99 242.78 73.8 242.78 73.8 247.47 72.39 247.47 72.39 249.71 70.83 249.71 70.78 254.4 65.41 254.4 65.46 250.13 66.92 250.13 66.97 245.7 68.22 245.7 68.17 243.04 69.68 242.99 69.68 240.08 71.09 240.08 71.03 238.57 66.71 238.41 66.66 240.13 63.07 239.97 62.86 232.78"/><polygon class="cls-3" points="878.8 173.54 885.99 173.54 885.99 174.89 887.34 174.89 887.34 178.12 880.25 178.12 880.25 179.11 878.49 179.11 878.49 181.87 880.1 181.87 880.1 183.22 882.91 183.22 882.91 187.5 881.4 187.5 881.4 188.9 879.94 188.9 879.94 190.52 881.4 190.52 881.4 191.66 882.08 191.66 882.08 190.62 886.92 190.57 886.87 193.28 885.72 193.28 885.78 194.89 882.91 194.89 882.91 196.09 877.39 196.09 877.39 194.89 874.47 194.94 874.47 186.66 875.88 186.72 875.88 185.99 874.68 185.88 874.47 184.58 873.33 184.53 873.33 177.81 874.42 177.76 874.47 175.2 878.75 175.15 878.8 173.54"/><polygon class="cls-3" points="921.78 173.98 936.39 173.98 936.39 178.2 927.17 185.31 927.17 189.53 929.6 189.53 929.52 188.12 935.69 188.12 935.69 191.24 932.64 194.06 929.6 194.06 929.6 195.65 924.83 195.65 924.52 193.9 922.57 193.9 922.49 192.81 921.16 192.47 921.16 184.13 923.11 184.06 923.11 182.49 924.28 182.49 924.28 181.16 925.64 181.16 925.64 179.6 928.78 179.6 928.78 178.59 924.52 178.51 924.52 179.84 921.63 179.84 921.78 173.98"/><polygon class="cls-3" points="875.76 236.28 885.53 236.28 885.53 237.61 886.74 237.61 886.74 244.68 884.9 244.68 884.94 246.21 886.39 246.21 886.39 247.69 888.03 247.69 888.03 254.56 886.43 254.56 886.39 255.81 885.06 255.81 885.02 257.3 875.57 257.3 875.57 256.09 874.2 256.09 874.2 254.53 872.64 254.56 872.64 247.81 874.16 247.81 874.16 246.36 875.53 246.4 875.53 245.62 874.32 245.62 874.32 237.88 875.57 237.88 875.76 236.28"/><polygon class="cls-3" points="925.2 239.74 925.2 235.62 933.53 235.62 933.53 252.71 936.39 252.71 936.39 257.19 924.88 257.19 924.88 252.55 927.96 252.6 927.9 239.84 925.2 239.74"/></svg>